<svg width="20" height="20" viewBox="0 0 20 20" fill="none" xmlns="http://www.w3.org/2000/svg">
<path d="M1.34001 4.99989C4.10101 0.216887 10.217 -1.42011 15 1.33989C16.895 2.43383 18.3791 4.11895 19.2247 6.13702C20.0704 8.15509 20.231 10.3948 19.682 12.5129C19.465 13.3449 18.46 13.5869 17.874 13.0439L17.79 12.9569L15.538 10.3699C14.853 9.58289 15.546 8.39789 16.535 8.55989L16.645 8.58289L17.927 8.91789C17.6807 7.11754 16.8288 5.45469 15.5115 4.203C14.1942 2.95131 12.4901 2.18537 10.6795 2.03122C8.86895 1.87706 7.05984 2.34389 5.54993 3.35488C4.04002 4.36586 2.91927 5.86076 2.37213 7.59355C1.82498 9.32634 1.88405 11.1938 2.53961 12.8885C3.19517 14.5833 4.40816 16.0043 5.97895 16.9179C7.54973 17.8314 9.38473 18.183 11.1819 17.9147C12.9791 17.6464 14.6315 16.7743 15.867 15.4419C15.9556 15.3433 16.0629 15.2634 16.1827 15.2067C16.3024 15.1499 16.4323 15.1176 16.5647 15.1115C16.6971 15.1054 16.8293 15.1257 16.9538 15.1711C17.0783 15.2166 17.1925 15.2864 17.2898 15.3764C17.387 15.4663 17.4655 15.5748 17.5205 15.6953C17.5755 15.8159 17.606 15.9462 17.6102 16.0787C17.6144 16.2111 17.5922 16.3431 17.545 16.4669C17.4978 16.5907 17.4264 16.7039 17.335 16.7999C14.233 20.1509 9.12301 21.0399 5.00001 18.6599C0.217009 15.8999 -1.41999 9.78289 1.34001 4.99989ZM10 3.99989C10.2449 3.99992 10.4813 4.08984 10.6644 4.2526C10.8474 4.41536 10.9644 4.63964 10.993 4.88289L11 4.99989V9.58589L13.707 12.2929C13.8864 12.4728 13.9905 12.7143 13.9982 12.9683C14.006 13.2222 13.9168 13.4696 13.7488 13.6602C13.5807 13.8507 13.3465 13.9702 13.0935 13.9943C12.8406 14.0184 12.588 13.9453 12.387 13.7899L12.293 13.7069L9.29301 10.7069C9.13759 10.5513 9.03777 10.3489 9.00901 10.1309L9.00001 9.99989V4.99989C9.00001 4.73467 9.10537 4.48032 9.2929 4.29278C9.48044 4.10524 9.73479 3.99989 10 3.99989Z" fill="#B9B6C3"/>
</svg>
