<svg width="19" height="21" viewBox="0 0 19 21" fill="none" xmlns="http://www.w3.org/2000/svg">
<path d="M8.00015 20.9403C7.80532 20.9403 7.61048 20.9067 7.41565 20.8395C7.22065 20.7722 7.04432 20.668 6.88665 20.527C5.98932 19.7 5.14957 18.8483 4.3674 17.972C3.5854 17.0958 2.90565 16.2199 2.32815 15.3443C1.75048 14.4686 1.2934 13.6007 0.956899 12.7405C0.620398 11.8802 0.452148 11.0493 0.452148 10.248C0.452148 8.64683 0.858232 7.19975 1.6704 5.90675C2.48256 4.61375 3.62582 3.66667 5.10015 3.0655C5.55265 2.86933 6.02865 2.72767 6.52815 2.6405C7.02748 2.55333 7.53223 2.50142 8.0424 2.48475C8.2549 2.48475 8.43307 2.55375 8.5769 2.69175C8.72056 2.82975 8.7924 3.00533 8.7924 3.2185C8.7924 3.43183 8.72056 3.61542 8.5769 3.76925C8.43307 3.92308 8.2549 4 8.0424 4C7.6249 4 7.21606 4.03433 6.8159 4.103C6.41573 4.1715 6.01431 4.28717 5.61165 4.45C4.43215 4.93967 3.52732 5.71275 2.89715 6.76925C2.26715 7.82558 1.95215 8.98517 1.95215 10.248C1.95215 11.457 2.47107 12.8657 3.5089 14.474C4.54673 16.0823 6.04381 17.7622 8.00015 19.5135C8.97198 18.6443 9.83131 17.7921 10.5781 16.9568C11.3248 16.1214 11.9546 15.3108 12.4674 14.525C12.8584 13.9187 13.187 13.3158 13.4531 12.7163C13.7191 12.1169 13.8989 11.5256 13.9924 10.9423C14.0399 10.6551 14.1473 10.4542 14.3146 10.3395C14.4818 10.2247 14.6584 10.1807 14.8444 10.2078C15.0302 10.2346 15.1914 10.3105 15.3279 10.4355C15.4646 10.5605 15.5194 10.7294 15.4924 10.9423C15.3782 11.9116 15.0968 12.8438 14.6481 13.7387C14.1993 14.6339 13.6731 15.4922 13.0694 16.3135C12.3847 17.225 11.6792 18.0436 10.9529 18.7693C10.2267 19.4949 9.61681 20.0776 9.12315 20.5173C8.96781 20.6583 8.79123 20.764 8.5934 20.8345C8.39573 20.905 8.19798 20.9403 8.00015 20.9403ZM8.0019 11.8652C8.4994 11.8652 8.92473 11.6881 9.2779 11.3338C9.63123 10.9794 9.8079 10.5535 9.8079 10.056C9.8079 9.5585 9.63073 9.13308 9.2764 8.77975C8.92206 8.42658 8.49606 8.25 7.9984 8.25C7.5009 8.25 7.07557 8.42717 6.7224 8.7815C6.36907 9.13583 6.1924 9.56183 6.1924 10.0595C6.1924 10.557 6.36957 10.9823 6.7239 11.3355C7.07823 11.6887 7.50423 11.8652 8.0019 11.8652ZM14.0001 5V7.25C14.0001 7.4625 14.0721 7.64067 14.2159 7.7845C14.3597 7.92817 14.5379 8 14.7504 8C14.9631 8 15.1411 7.92817 15.2846 7.7845C15.4283 7.64067 15.5001 7.4625 15.5001 7.25V5H17.7501C17.9626 5 18.1407 4.92808 18.2844 4.78425C18.4282 4.64042 18.5001 4.46225 18.5001 4.24975C18.5001 4.03708 18.4282 3.859 18.2844 3.7155C18.1407 3.57183 17.9626 3.5 17.7501 3.5H15.5001V1.25C15.5001 1.0375 15.4282 0.859417 15.2844 0.71575C15.1406 0.571917 14.9624 0.5 14.7499 0.5C14.5372 0.5 14.3591 0.571917 14.2156 0.71575C14.072 0.859417 14.0001 1.0375 14.0001 1.25V3.5H11.7501C11.5376 3.5 11.3595 3.57192 11.2156 3.71575C11.072 3.85958 11.0001 4.03775 11.0001 4.25025C11.0001 4.46292 11.072 4.641 11.2156 4.7845C11.3595 4.92817 11.5376 5 11.7501 5H14.0001Z" fill="#1C1B1F"/>
</svg>
