<svg width="34" height="34" viewBox="0 0 34 34" fill="none" xmlns="http://www.w3.org/2000/svg">
<path d="M17 0.5C26.1127 0.5 33.5 7.8873 33.5 17C33.5 26.1127 26.1127 33.5 17 33.5C7.8873 33.5 0.5 26.1127 0.5 17C0.5 7.8873 7.8873 0.5 17 0.5Z" fill="#F57474"/>
<path d="M17 0.5C26.1127 0.5 33.5 7.8873 33.5 17C33.5 26.1127 26.1127 33.5 17 33.5C7.8873 33.5 0.5 26.1127 0.5 17C0.5 7.8873 7.8873 0.5 17 0.5Z" stroke="#DAD8DF"/>
<path d="M17.0003 22.2165L11.1225 25.5067L12.4352 18.8998L7.48975 14.3263L14.1789 13.5332L17.0003 7.4165L19.8217 13.5332L26.5108 14.3263L21.5654 18.8998L22.8782 25.5067L17.0003 22.2165Z" fill="#FEF2F2"/>
</svg>
