<svg width="166" height="130" viewBox="0 0 166 130" fill="none" xmlns="http://www.w3.org/2000/svg">
<path opacity="0.2" d="M292.469 69.6527L287.565 66.1947L292.469 69.6527ZM5.09149 169.994L0.153656 166.585L6.97065 156.71L11.9085 160.118L5.09149 169.994ZM310.922 0.853708L316.916 0.6032C317.432 12.9563 316.392 46.1416 297.372 73.1108L292.469 69.6527L287.565 66.1947C304.272 42.5055 305.408 12.6137 304.927 1.10422L310.922 0.853708ZM292.469 69.6527L297.372 73.1108C273.683 106.7 244.474 114.205 227.032 118.753L225.518 112.947L224.004 107.141C240.903 102.735 266.463 96.1158 287.565 66.1947L292.469 69.6527ZM225.518 112.947L227.032 118.753C209.34 123.366 174.595 128.099 147.867 100.901L152.146 96.6953L156.425 92.4898C178.419 114.869 207.355 111.482 224.004 107.141L225.518 112.947ZM152.146 96.6953L147.867 100.901C134.898 87.7051 131.402 75.8926 134.198 66.1711C136.831 57.0134 144.558 51.743 149.696 50.3462L151.27 56.1361L152.844 61.9259C151.026 62.4203 147.011 65.0352 145.73 69.4872C144.612 73.3754 145.032 80.8969 156.425 92.4898L152.146 96.6953ZM151.27 56.1361L149.696 50.3462C155.193 48.8516 163.532 50.3044 170.433 54.9992C177.779 59.9974 183.725 68.7632 184.076 82.0163L178.078 82.1749L172.08 82.3334C171.832 72.9562 167.852 67.7571 163.683 64.9207C159.068 61.7808 154.302 61.5294 152.844 61.9259L151.27 56.1361ZM178.078 82.1749L184.076 82.0163C184.396 94.1293 182.328 103.092 179.134 110.111C175.964 117.078 171.816 121.796 168.741 125.321L164.22 121.377L159.698 117.433C162.756 113.928 165.837 110.36 168.212 105.141C170.563 99.9737 172.358 92.8508 172.08 82.3334L178.078 82.1749ZM164.22 121.377L168.741 125.321C161.402 133.734 146.275 141.656 128.931 139.613L129.633 133.654L130.335 127.695C143.464 129.242 154.771 123.081 159.698 117.433L164.22 121.377ZM129.633 133.654L128.931 139.613C120.521 138.622 111.943 135.725 105.373 132.192C102.095 130.43 99.0785 128.383 96.793 126.136C94.7221 124.1 92.2277 120.897 92.2629 116.848L98.2627 116.9L104.262 116.952C104.271 115.975 103.78 116.177 105.205 117.578C106.416 118.769 108.388 120.189 111.055 121.623C116.375 124.483 123.509 126.891 130.335 127.695L129.633 133.654ZM98.2627 116.9L92.2629 116.848C92.3053 111.978 94.7011 106.847 99.8376 104.495C105.005 102.13 110.954 103.466 116.403 107.138L113.05 112.113L109.697 117.089C107.999 115.945 106.746 115.512 105.961 115.375C105.211 115.245 104.893 115.379 104.832 115.407C104.816 115.414 104.274 115.678 104.262 116.952L98.2627 116.9ZM113.05 112.113L116.403 107.138C123.03 111.603 125.298 119.203 125.968 125.135C126.65 131.169 125.886 137.161 124.818 140.466L119.109 138.622L113.399 136.778C113.891 135.254 114.554 130.994 114.044 126.482C113.523 121.868 111.982 118.629 109.697 117.089L113.05 112.113ZM119.109 138.622L124.818 140.466C124.132 142.59 122.508 149.12 117.929 156.229C113.281 163.444 105.667 171.218 93.0452 176.758L90.6336 171.264L88.222 165.77C98.5297 161.245 104.373 155.113 107.841 149.73C111.376 144.242 112.525 139.484 113.399 136.778L119.109 138.622ZM90.6336 171.264L93.0452 176.758C68.6164 187.481 31.4259 188.172 5.09149 169.994L8.49999 165.056L11.9085 160.118C34.1469 175.469 66.7918 175.177 88.222 165.77L90.6336 171.264Z" fill="#D1317A"/>
</svg>
