<svg width="19" height="18" viewBox="0 0 19 18" fill="none" xmlns="http://www.w3.org/2000/svg">
<path d="M2.844 1.566C4.446 0.643 6.619 0 9 0C11.381 0 13.554 0.643 15.156 1.566C15.956 2.028 16.644 2.576 17.143 3.181C17.633 3.776 18 4.499 18 5.286C18 6.078 17.62 6.698 17.01 7.107C16.466 7.472 15.76 7.66 15.029 7.774C14.449 7.864 13.77 7.919 13.01 7.951L12.224 7.977L11.387 7.992L10.502 7.998H7.498L6.613 7.992L5.776 7.977L4.99 7.951C4.31428 7.92876 3.64028 7.86967 2.971 7.774C2.241 7.66 1.534 7.472 0.99 7.107C0.38 6.697 0 6.077 0 5.286C0 4.499 0.366 3.776 0.857 3.181C1.356 2.577 2.043 2.028 2.844 1.566ZM1.336 8.908C1.82878 8.57951 2.40777 8.40422 3 8.40422C3.59223 8.40422 4.17122 8.57951 4.664 8.908L5.445 9.428C5.60933 9.53764 5.80245 9.59615 6 9.59615C6.19755 9.59615 6.39067 9.53764 6.555 9.428L7.335 8.908C7.82799 8.57908 8.40736 8.40355 9 8.40355C9.59264 8.40355 10.172 8.57908 10.665 8.908L11.445 9.428C11.6093 9.53764 11.8025 9.59615 12 9.59615C12.1975 9.59615 12.3907 9.53764 12.555 9.428L13.335 8.908C13.828 8.57908 14.4074 8.40355 15 8.40355C15.5926 8.40355 16.172 8.57908 16.665 8.908L17.589 9.524C17.6983 9.59688 17.7921 9.69057 17.8651 9.79972C17.9382 9.90887 17.989 10.0313 18.0148 10.1601C18.0405 10.2889 18.0406 10.4215 18.0151 10.5504C17.9895 10.6792 17.9389 10.8017 17.866 10.911C17.7931 11.0203 17.6994 11.1141 17.5903 11.1871C17.4811 11.2602 17.3587 11.311 17.2299 11.3368C17.1011 11.3625 16.9685 11.3626 16.8396 11.3371C16.7108 11.3115 16.5883 11.2609 16.479 11.188L15.555 10.572C15.3907 10.4624 15.1975 10.4039 15 10.4039C14.8025 10.4039 14.6093 10.4624 14.445 10.572L13.665 11.092C13.172 11.4209 12.5926 11.5964 12 11.5964C11.4074 11.5964 10.828 11.4209 10.335 11.092L9.555 10.572C9.39067 10.4624 9.19755 10.4039 9 10.4039C8.80245 10.4039 8.60933 10.4624 8.445 10.572L7.665 11.092C7.17201 11.4209 6.59264 11.5964 6 11.5964C5.40736 11.5964 4.82799 11.4209 4.335 11.092L3.555 10.572C3.39067 10.4624 3.19755 10.4039 3 10.4039C2.80245 10.4039 2.60933 10.4624 2.445 10.572L2.088 10.818C1.898 10.948 1.678 11.093 1.466 11.205C1.23212 11.3216 0.961892 11.342 0.713157 11.2618C0.464422 11.1817 0.256944 11.0074 0.135134 10.7762C0.0133239 10.545 -0.0131401 10.2752 0.0614069 10.0248C0.135954 9.77431 0.305588 9.56297 0.534 9.436C0.606 9.398 0.672 9.359 0.738 9.316L1.336 8.908ZM1 12C0.734784 12 0.48043 12.1054 0.292893 12.2929C0.105357 12.4804 0 12.7348 0 13V14C0 15.0609 0.421427 16.0783 1.17157 16.8284C1.92172 17.5786 2.93913 18 4 18H14C15.0609 18 16.0783 17.5786 16.8284 16.8284C17.5786 16.0783 18 15.0609 18 14V13C18 12.7348 17.8946 12.4804 17.7071 12.2929C17.5196 12.1054 17.2652 12 17 12H1Z" fill="#6F27FF"/>
</svg>
