<svg width="21" height="20" viewBox="0 0 21 20" fill="none" xmlns="http://www.w3.org/2000/svg">
<path fill-rule="evenodd" clip-rule="evenodd" d="M9.09961 0C7.77353 0 6.50176 0.526784 5.56408 1.46447C4.62639 2.40215 4.09961 3.67392 4.09961 5C4.09961 6.32608 4.62639 7.59785 5.56408 8.53553C6.50176 9.47322 7.77353 10 9.09961 10C10.4257 10 11.6975 9.47322 12.6351 8.53553C13.5728 7.59785 14.0996 6.32608 14.0996 5C14.0996 3.67392 13.5728 2.40215 12.6351 1.46447C11.6975 0.526784 10.4257 0 9.09961 0ZM9.09961 11C6.70461 11 4.52461 11.694 2.92161 12.672C2.12161 13.16 1.43761 13.736 0.943609 14.362C0.457609 14.976 0.0996094 15.713 0.0996094 16.5C0.0996094 17.345 0.510609 18.011 1.10261 18.486C1.66261 18.936 2.40161 19.234 3.18661 19.442C4.76461 19.859 6.87061 20 9.09961 20C9.32961 20 9.55961 19.998 9.78461 19.995C9.95209 19.9927 10.1163 19.9484 10.2622 19.8661C10.4081 19.7838 10.5309 19.6662 10.6195 19.524C10.7081 19.3819 10.7596 19.2198 10.7692 19.0525C10.7788 18.8853 10.7463 18.7184 10.6746 18.567C10.2946 17.7647 10.0981 16.8878 10.0996 16C10.0996 14.748 10.4826 13.588 11.1366 12.627C11.2338 12.4842 11.2924 12.3186 11.3066 12.1465C11.3208 11.9743 11.2901 11.8014 11.2176 11.6446C11.1451 11.4878 11.0332 11.3524 10.8928 11.2517C10.7524 11.151 10.5884 11.0884 10.4166 11.07C9.98661 11.024 9.54661 11 9.09961 11ZM16.9636 11.997C16.8756 11.8459 16.7495 11.7206 16.5979 11.6335C16.4463 11.5463 16.2745 11.5005 16.0996 11.5005C15.9248 11.5005 15.753 11.5463 15.6014 11.6335C15.4498 11.7206 15.3236 11.8459 15.2356 11.997L14.3256 13.559L12.5596 13.941C12.3886 13.978 12.2303 14.0592 12.1005 14.1765C11.9707 14.2938 11.874 14.4431 11.8199 14.6095C11.7659 14.7759 11.7564 14.9535 11.7925 15.1247C11.8286 15.2959 11.909 15.4546 12.0256 15.585L13.2296 16.933L13.0476 18.731C13.03 18.905 13.0583 19.0806 13.1297 19.2402C13.2011 19.3998 13.3131 19.538 13.4546 19.6408C13.5961 19.7436 13.762 19.8075 13.9359 19.8261C14.1098 19.8448 14.2856 19.8175 14.4456 19.747L16.0996 19.017L17.7536 19.747C17.9137 19.8175 18.0894 19.8448 18.2633 19.8261C18.4372 19.8075 18.6031 19.7436 18.7446 19.6408C18.8861 19.538 18.9981 19.3998 19.0695 19.2402C19.1409 19.0806 19.1692 18.905 19.1516 18.731L18.9696 16.932L20.1736 15.585C20.2902 15.4546 20.3706 15.2959 20.4067 15.1247C20.4428 14.9535 20.4333 14.7759 20.3793 14.6095C20.3252 14.4431 20.2285 14.2938 20.0987 14.1765C19.9689 14.0592 19.8106 13.978 19.6396 13.941L17.8736 13.559L16.9636 11.997Z" fill="#6F27FF"/>
</svg>
