<svg width="22" height="22" viewBox="0 0 22 22" fill="none" xmlns="http://www.w3.org/2000/svg">
<path d="M11 12C11.3167 12 11.5873 11.8917 11.812 11.675C12.0373 11.4584 12.15 11.1917 12.15 10.875V6.97505C12.15 6.65838 12.0373 6.39605 11.812 6.18805C11.5873 5.97938 11.3167 5.87505 11 5.87505C10.6833 5.87505 10.4127 5.98338 10.188 6.20005C9.96267 6.41672 9.85 6.68338 9.85 7.00005V10.9C9.85 11.2167 9.96267 11.4794 10.188 11.688C10.4127 11.896 10.6833 12 11 12ZM11 16.2C11.3333 16.2 11.6127 16.0874 11.838 15.862C12.0627 15.6374 12.175 15.3584 12.175 15.025C12.175 14.6917 12.0627 14.4127 11.838 14.188C11.6127 13.9627 11.3333 13.85 11 13.85C10.6667 13.85 10.3877 13.9627 10.163 14.188C9.93767 14.4127 9.825 14.6917 9.825 15.025C9.825 15.3584 9.93767 15.6374 10.163 15.862C10.3877 16.0874 10.6667 16.2 11 16.2ZM11 21.2001C9.58334 21.2001 8.254 20.9334 7.012 20.4C5.77067 19.8667 4.69167 19.1417 3.775 18.225C2.85834 17.3084 2.13334 16.2294 1.6 14.988C1.06667 13.746 0.800003 12.4167 0.800003 11C0.800003 9.58338 1.06667 8.25405 1.6 7.01205C2.13334 5.77072 2.85834 4.69172 3.775 3.77505C4.69167 2.85838 5.77067 2.13338 7.012 1.60005C8.254 1.06672 9.58334 0.800049 11 0.800049C12.4167 0.800049 13.746 1.06672 14.988 1.60005C16.2293 2.13338 17.3083 2.85838 18.225 3.77505C19.1417 4.69172 19.8667 5.77072 20.4 7.01205C20.9333 8.25405 21.2 9.58338 21.2 11C21.2 12.4167 20.9333 13.746 20.4 14.988C19.8667 16.2294 19.1417 17.3084 18.225 18.225C17.3083 19.1417 16.2293 19.8667 14.988 20.4C13.746 20.9334 12.4167 21.2001 11 21.2001Z" fill="#6C27FF"/>
</svg>
