<svg width="21" height="20" viewBox="0 0 21 20" fill="none" xmlns="http://www.w3.org/2000/svg">
<path d="M10.5 0C16.023 0 20.5 4.477 20.5 10C20.5 15.523 16.023 20 10.5 20C4.977 20 0.5 15.523 0.5 10C0.5 4.477 4.977 0 10.5 0ZM14.743 5.757C14.389 5.404 9.793 6.464 8.379 7.879C6.965 9.293 5.904 13.889 6.257 14.243C6.611 14.596 11.207 13.536 12.621 12.121C14.036 10.707 15.096 6.111 14.743 5.757ZM10.5 9C10.7652 9 11.0196 9.10536 11.2071 9.29289C11.3946 9.48043 11.5 9.73478 11.5 10C11.5 10.2652 11.3946 10.5196 11.2071 10.7071C11.0196 10.8946 10.7652 11 10.5 11C10.2348 11 9.98043 10.8946 9.79289 10.7071C9.60536 10.5196 9.5 10.2652 9.5 10C9.5 9.73478 9.60536 9.48043 9.79289 9.29289C9.98043 9.10536 10.2348 9 10.5 9Z" fill="#6F27FF"/>
</svg>
