<svg width="20" height="17" viewBox="0 0 20 17" fill="none" xmlns="http://www.w3.org/2000/svg">
<path d="M4.30749 16.5001C3.80882 16.5001 3.38282 16.3235 3.02949 15.9703C2.67632 15.617 2.49974 15.191 2.49974 14.6923V7.2403L1.23049 8.22705C1.05482 8.35522 0.868906 8.4058 0.67274 8.3788C0.47674 8.35197 0.314573 8.25072 0.18624 8.07505C0.0580731 7.89938 0.00840648 7.71347 0.0372398 7.5173C0.0660731 7.32113 0.16324 7.15897 0.32874 7.0308L8.89024 0.46355C9.05424 0.34305 9.23082 0.252634 9.41999 0.1923C9.60899 0.132134 9.80224 0.102051 9.99974 0.102051C10.1972 0.102051 10.3889 0.132134 10.5747 0.1923C10.7606 0.252634 10.9356 0.34305 11.0997 0.46355L19.6862 7.0308C19.8516 7.15897 19.9462 7.32113 19.97 7.5173C19.9937 7.71347 19.9414 7.89938 19.8132 8.07505C19.6849 8.24038 19.5227 8.33655 19.3267 8.36355C19.1306 8.39038 18.9497 8.33972 18.7842 8.21155L17.4997 7.2403V14.6923C17.4997 15.191 17.3232 15.617 16.97 15.9703C16.6167 16.3235 16.1907 16.5001 15.692 16.5001H4.30749ZM4.30749 15.0001H15.692C15.7818 15.0001 15.8556 14.9712 15.9132 14.9136C15.9709 14.8559 15.9997 14.7821 15.9997 14.6923V6.10005L10.1825 1.6693C10.1312 1.62447 10.0702 1.60205 9.99974 1.60205C9.92924 1.60205 9.86832 1.62447 9.81699 1.6693L3.99974 6.10005V14.6923C3.99974 14.7821 4.02857 14.8559 4.08624 14.9136C4.14391 14.9712 4.21766 15.0001 4.30749 15.0001ZM4.30749 15.0001H3.99974H15.9997H4.30749Z" fill="white"/>
</svg>
