<svg width="19" height="18" viewBox="0 0 19 18" fill="none" xmlns="http://www.w3.org/2000/svg">
<path d="M14.9 17.4001C13.892 17.4001 13.04 17.0521 12.344 16.3561C11.648 15.6601 11.3 14.8081 11.3 13.8001C11.3 12.7921 11.648 11.9401 12.344 11.2441C13.04 10.5481 13.892 10.2001 14.9 10.2001C15.908 10.2001 16.76 10.5481 17.456 11.2441C18.152 11.9401 18.5 12.7921 18.5 13.8001C18.5 14.8081 18.152 15.6601 17.456 16.3561C16.76 17.0521 15.908 17.4001 14.9 17.4001ZM14.903 15.6001C15.401 15.6001 15.825 15.4241 16.175 15.0721C16.525 14.7201 16.7 14.2951 16.7 13.7971C16.7 13.2991 16.524 12.8751 16.172 12.5251C15.82 12.1751 15.395 12.0001 14.897 12.0001C14.399 12.0001 13.975 12.1761 13.625 12.5281C13.275 12.8801 13.1 13.3051 13.1 13.8031C13.1 14.3011 13.276 14.7251 13.628 15.0751C13.98 15.4251 14.405 15.6001 14.903 15.6001ZM1.7 14.7001V12.9001H9.5V14.7001H1.7ZM4.1 7.8001C3.092 7.8001 2.24 7.4521 1.544 6.7561C0.848 6.0601 0.5 5.2081 0.5 4.2001C0.5 3.1921 0.848 2.3401 1.544 1.6441C2.24 0.948098 3.092 0.600098 4.1 0.600098C5.108 0.600098 5.96 0.948098 6.656 1.6441C7.352 2.3401 7.7 3.1921 7.7 4.2001C7.7 5.2081 7.352 6.0601 6.656 6.7561C5.96 7.4521 5.108 7.8001 4.1 7.8001ZM4.10303 6.0001C4.60101 6.0001 5.025 5.82409 5.375 5.47207C5.725 5.12006 5.9 4.69506 5.9 4.19707C5.9 3.69909 5.72399 3.2751 5.37198 2.9251C5.01996 2.5751 4.59496 2.4001 4.09698 2.4001C3.59899 2.4001 3.175 2.57611 2.825 2.92812C2.475 3.28014 2.3 3.70514 2.3 4.20312C2.3 4.70111 2.47601 5.1251 2.82803 5.4751C3.18004 5.8251 3.60504 6.0001 4.10303 6.0001ZM9.5 5.1001V3.3001H17.3V5.1001H9.5Z" fill="#B9B6C3"/>
</svg>
