<svg width="17" height="18" viewBox="0 0 17 18" fill="none" xmlns="http://www.w3.org/2000/svg">
<path d="M1.55305 5.2577C2.92426 2.53418 5.74239 0.666748 9.00002 0.666748C11.2462 0.666748 13.1325 1.49254 14.5758 2.83721L12.1856 5.22737C11.322 4.40162 10.2234 3.98114 9.00002 3.98114C6.82954 3.98114 4.99239 5.44706 4.33715 7.41675C4.17044 7.91675 4.07574 8.45083 4.07574 9.00008C4.07574 9.54933 4.17044 10.0834 4.33715 10.5834C4.99239 12.5531 6.82954 14.019 9.00002 14.019C10.1212 14.019 11.0758 13.7236 11.822 13.2236C12.7045 12.6327 13.2917 11.7501 13.4849 10.7084H9.00002V7.48491H16.8484C16.947 8.03033 17 8.59858 17 9.1895C17 11.7273 16.0909 13.8637 14.5151 15.3145C13.1364 16.5872 11.25 17.3334 9.00002 17.3334C5.74239 17.3334 2.92426 15.466 1.55305 12.7425C0.98867 11.6175 0.666687 10.3447 0.666687 9.00008C0.666687 7.65542 0.98867 6.38267 1.55305 5.2577Z" fill="#938EA2"/>
</svg>
