<svg width="21" height="20" viewBox="0 0 21 20" fill="none" xmlns="http://www.w3.org/2000/svg">
<path fill-rule="evenodd" clip-rule="evenodd" d="M9.12372 0.618118C9.4655 0.369665 9.87718 0.23584 10.2997 0.23584C10.7223 0.23584 11.1339 0.369665 11.4757 0.618118L19.3347 6.32812C19.6765 6.57631 19.9309 6.92633 20.0615 7.328C20.1921 7.72968 20.1922 8.16239 20.0617 8.56412L17.0587 17.8041C16.9282 18.2058 16.6739 18.5558 16.3322 18.8041C15.9906 19.0524 15.5791 19.1861 15.1567 19.1861H5.44272C5.02021 19.1863 4.60849 19.0527 4.26662 18.8044C3.92474 18.5561 3.67028 18.206 3.53972 17.8041L0.537723 8.56412C0.407271 8.16239 0.40735 7.72968 0.537948 7.328C0.668547 6.92633 0.922961 6.57631 1.26472 6.32812L9.12372 0.618118ZM18.1597 7.94612L10.2997 2.23612L2.43972 7.94612L5.44272 17.1861H15.1567L18.1597 7.94612Z" fill="#938EA2"/>
</svg>
