<svg width="21" height="20" viewBox="0 0 21 20" fill="none" xmlns="http://www.w3.org/2000/svg">
<path fill-rule="evenodd" clip-rule="evenodd" d="M9.12401 0.618118C9.46578 0.369665 9.87747 0.23584 10.3 0.23584C10.7225 0.23584 11.1342 0.369665 11.476 0.618118L19.335 6.32812C19.6768 6.57631 19.9312 6.92633 20.0618 7.328C20.1924 7.72968 20.1925 8.16239 20.062 8.56412L17.059 17.8041C16.9285 18.2058 16.6742 18.5558 16.3325 18.8041C15.9908 19.0524 15.5793 19.1861 15.157 19.1861H5.44301C5.02049 19.1863 4.60877 19.0527 4.2669 18.8044C3.92503 18.5561 3.67056 18.206 3.54001 17.8041L0.538005 8.56412C0.407553 8.16239 0.407632 7.72968 0.538231 7.328C0.66883 6.92633 0.923243 6.57631 1.26501 6.32812L9.12401 0.618118Z" fill="#6F27FF"/>
</svg>
