<svg width="22" height="21" viewBox="0 0 22 21" fill="none" xmlns="http://www.w3.org/2000/svg">
<path d="M18.7134 7.12811L18.4668 7.69379C18.2864 8.10792 17.7136 8.10792 17.5331 7.69379L17.2866 7.12811C16.8471 6.11947 16.0555 5.31641 15.0677 4.87708L14.308 4.53922C13.8973 4.35653 13.8973 3.75881 14.308 3.57612L15.0252 3.25714C16.0384 2.80651 16.8442 1.97373 17.2761 0.930831L17.5293 0.319531C17.7058 -0.10651 18.2942 -0.10651 18.4706 0.319531L18.7238 0.930831C19.1558 1.97373 19.9616 2.80651 20.9748 3.25714L21.6919 3.57612C22.1027 3.75881 22.1027 4.35653 21.6919 4.53922L20.9323 4.87708C19.9445 5.31641 19.1529 6.11947 18.7134 7.12811ZM10 1C4.47715 1 0 5.47715 0 11C0 12.7025 0.42544 14.3056 1.17581 15.7088L0 21L5.29117 19.8242C6.6944 20.5746 8.2975 21 10 21C15.5228 21 20 16.5228 20 11C20 10.5975 19.9762 10.2002 19.9298 9.8094L17.9437 10.0452C17.9809 10.3579 18 10.6765 18 11C18 15.4183 14.4183 19 10 19C8.6655 19 7.38248 18.6745 6.23428 18.0605L5.58075 17.711L2.63416 18.3658L3.28896 15.4192L2.93949 14.7657C2.32549 13.6175 2 12.3345 2 11C2 6.58172 5.58172 3 10 3C10.6919 3 11.3618 3.0876 12 3.25179L12.4983 1.31487C11.6987 1.10914 10.8614 1 10 1ZM7 11H5C5 13.7614 7.23858 16 10 16C12.7614 16 15 13.7614 15 11H13C13 12.6569 11.6569 14 10 14C8.3431 14 7 12.6569 7 11Z" fill="#938EA2"/>
</svg>
