<svg width="213" height="230" viewBox="0 0 213 230" fill="none" xmlns="http://www.w3.org/2000/svg">
<g filter="url(#filter0_d_1309_2002)">
<path d="M67.1504 28C67.052 28.4847 67 28.9863 67 29.5C67 33.6421 70.3579 37 74.5 37C78.6421 37 82 33.6421 82 29.5C82 28.9863 81.948 28.4847 81.8496 28H87.1504C87.052 28.4847 87 28.9863 87 29.5C87 33.6421 90.3579 37 94.5 37C98.6421 37 102 33.6421 102 29.5C102 28.9863 101.948 28.4847 101.85 28H107.15C107.052 28.4847 107 28.9863 107 29.5C107 33.6421 110.358 37 114.5 37C118.642 37 122 33.6421 122 29.5C122 28.9863 121.948 28.4847 121.85 28H127.15C127.052 28.4847 127 28.9863 127 29.5C127 33.6421 130.358 37 134.5 37C138.642 37 142 33.6421 142 29.5C142 28.9863 141.948 28.4847 141.85 28H147.15C147.052 28.4847 147 28.9863 147 29.5C147 33.6421 150.358 37 154.5 37C158.642 37 162 33.6421 162 29.5C162 28.9863 161.948 28.4847 161.85 28H162C168.627 28 174 33.3726 174 40V45.0186C170.091 45.2759 167 48.5259 167 52.5C167 56.4741 170.091 59.7241 174 59.9814V65.0186C170.091 65.2759 167 68.5259 167 72.5C167 76.4741 170.091 79.7241 174 79.9814V85.0186C170.091 85.2759 167 88.5259 167 92.5C167 96.4741 170.091 99.7241 174 99.9814V105.019C170.091 105.276 167 108.526 167 112.5C167 116.474 170.091 119.724 174 119.981V125.019C170.091 125.276 167 128.526 167 132.5C167 136.474 170.091 139.724 174 139.981V145.019C170.091 145.276 167 148.526 167 152.5C167 156.474 170.091 159.724 174 159.981V174C174 179.622 170.133 184.339 164.914 185.642C164.971 185.269 165 184.888 165 184.5C165 180.358 161.642 177 157.5 177C153.358 177 150 180.358 150 184.5C150 185.014 150.052 185.515 150.15 186H144.85C144.948 185.515 145 185.014 145 184.5C145 180.358 141.642 177 137.5 177C133.358 177 130 180.358 130 184.5C130 185.014 130.052 185.515 130.15 186H124.85C124.948 185.515 125 185.014 125 184.5C125 180.358 121.642 177 117.5 177C113.358 177 110 180.358 110 184.5C110 185.014 110.052 185.515 110.15 186H104.85C104.948 185.515 105 185.014 105 184.5C105 180.358 101.642 177 97.5 177C93.3579 177 90 180.358 90 184.5C90 185.014 90.052 185.515 90.1504 186H84.8496C84.948 185.515 85 185.014 85 184.5C85 180.358 81.6421 177 77.5 177C73.3579 177 70 180.358 70 184.5C70 185.014 70.052 185.515 70.1504 186H64.8496C64.948 185.515 65 185.014 65 184.5C65 180.358 61.6421 177 57.5 177C53.3579 177 50 180.358 50 184.5C50 185.014 50.052 185.515 50.1504 186H50C43.3726 186 38 180.627 38 174V158.85C38.4847 158.948 38.9863 159 39.5 159C43.6421 159 47 155.642 47 151.5C47 147.358 43.6421 144 39.5 144C38.9863 144 38.4846 144.051 38 144.149V138.85C38.4847 138.948 38.9863 139 39.5 139C43.6421 139 47 135.642 47 131.5C47 127.358 43.6421 124 39.5 124C38.9863 124 38.4846 124.051 38 124.149V118.85C38.4847 118.948 38.9863 119 39.5 119C43.6421 119 47 115.642 47 111.5C47 107.358 43.6421 104 39.5 104C38.9863 104 38.4846 104.051 38 104.149V98.8496C38.4847 98.948 38.9863 99 39.5 99C43.6421 99 47 95.6421 47 91.5C47 87.3579 43.6421 84 39.5 84C38.9863 84 38.4846 84.051 38 84.1494V78.8496C38.4847 78.948 38.9863 79 39.5 79C43.6421 79 47 75.6421 47 71.5C47 67.3579 43.6421 64 39.5 64C38.9863 64 38.4846 64.051 38 64.1494V58.8496C38.4847 58.948 38.9863 59 39.5 59C43.6421 59 47 55.6421 47 51.5C47 47.3579 43.6421 44 39.5 44C38.9863 44 38.4846 44.051 38 44.1494V40C38 34.378 41.8663 29.6598 47.085 28.3574C47.028 28.7299 47 29.1116 47 29.5C47 33.6421 50.3579 37 54.5 37C58.6421 37 62 33.6421 62 29.5C62 28.9863 61.948 28.4847 61.8496 28H67.1504Z" fill="#EBE7FF"/>
</g>
<path d="M63 60C63 55.5817 66.5817 52 71 52H141C145.418 52 149 55.5817 149 60V125C149 129.418 145.418 133 141 133H71C66.5817 133 63 129.418 63 125V60Z" fill="#7F4DFF"/>
<g clip-path="url(#clip0_1309_2002)">
<path d="M108 73C108 72.4696 107.789 71.9609 107.414 71.5858C107.039 71.2107 106.53 71 106 71C105.47 71 104.961 71.2107 104.586 71.5858C104.211 71.9609 104 72.4696 104 73V75H102C100.939 75 99.9217 75.4214 99.1716 76.1716C98.4214 76.9217 98 77.9391 98 79V83C98 84.0609 98.4214 85.0783 99.1716 85.8284C99.9217 86.5786 100.939 87 102 87H104V89H96.828C95.7672 89.0002 94.75 89.4218 94 90.172L90.586 93.586C90.2111 93.9611 90.0004 94.4697 90.0004 95C90.0004 95.5303 90.2111 96.0389 90.586 96.414L94 99.828C94.75 100.578 95.7672 101 96.828 101H104V107H100C99.4696 107 98.9609 107.211 98.5858 107.586C98.2107 107.961 98 108.47 98 109C98 109.53 98.2107 110.039 98.5858 110.414C98.9609 110.789 99.4696 111 100 111H112C112.53 111 113.039 110.789 113.414 110.414C113.789 110.039 114 109.53 114 109C114 108.47 113.789 107.961 113.414 107.586C113.039 107.211 112.53 107 112 107H108V101H110C111.061 101 112.078 100.579 112.828 99.8284C113.579 99.0783 114 98.0609 114 97V93C114 91.9391 113.579 90.9217 112.828 90.1716C112.078 89.4214 111.061 89 110 89H108V87H115.172C116.233 86.9998 117.25 86.5782 118 85.828L121.414 82.414C121.789 82.0389 122 81.5303 122 81C122 80.4697 121.789 79.9611 121.414 79.586L118 76.172C117.25 75.4218 116.233 75.0002 115.172 75H108V73Z" fill="#3EEA97"/>
</g>
<path d="M194.124 17.069C194.769 15.3278 197.231 15.3278 197.876 17.069L198.382 18.4366C198.584 18.984 199.016 19.4157 199.563 19.6182L200.931 20.1243C202.672 20.7686 202.672 23.2314 200.931 23.8757L199.563 24.3818C199.016 24.5843 198.584 25.016 198.382 25.5634L197.876 26.931C197.231 28.6722 194.769 28.6722 194.124 26.931L193.618 25.5634C193.416 25.016 192.984 24.5843 192.437 24.3818L191.069 23.8757C189.328 23.2314 189.328 20.7686 191.069 20.1243L192.437 19.6182C192.984 19.4157 193.416 18.984 193.618 18.4366L194.124 17.069Z" fill="#F57474"/>
<path d="M8.1243 101.069C8.76861 99.3278 11.2314 99.3278 11.8757 101.069L12.3818 102.437C12.5843 102.984 13.016 103.416 13.5634 103.618L14.931 104.124C16.6722 104.769 16.6722 107.231 14.931 107.876L13.5634 108.382C13.016 108.584 12.5843 109.016 12.3818 109.563L11.8757 110.931C11.2314 112.672 8.76861 112.672 8.1243 110.931L7.61824 109.563C7.41567 109.016 6.98405 108.584 6.43661 108.382L5.06901 107.876C3.32778 107.231 3.32778 104.769 5.06901 104.124L6.43661 103.618C6.98405 103.416 7.41567 102.984 7.61824 102.437L8.1243 101.069Z" fill="#EFD703"/>
<path d="M201.124 138.069C201.769 136.328 204.231 136.328 204.876 138.069L205.382 139.437C205.584 139.984 206.016 140.416 206.563 140.618L207.931 141.124C209.672 141.769 209.672 144.231 207.931 144.876L206.563 145.382C206.016 145.584 205.584 146.016 205.382 146.563L204.876 147.931C204.231 149.672 201.769 149.672 201.124 147.931L200.618 146.563C200.416 146.016 199.984 145.584 199.437 145.382L198.069 144.876C196.328 144.231 196.328 141.769 198.069 141.124L199.437 140.618C199.984 140.416 200.416 139.984 200.618 139.437L201.124 138.069Z" fill="#7F4DFF"/>
<defs>
<filter id="filter0_d_1309_2002" x="2" y="0" width="208" height="230" filterUnits="userSpaceOnUse" color-interpolation-filters="sRGB">
<feFlood flood-opacity="0" result="BackgroundImageFix"/>
<feColorMatrix in="SourceAlpha" type="matrix" values="0 0 0 0 0 0 0 0 0 0 0 0 0 0 0 0 0 0 127 0" result="hardAlpha"/>
<feMorphology radius="20" operator="dilate" in="SourceAlpha" result="effect1_dropShadow_1309_2002"/>
<feOffset dy="8"/>
<feGaussianBlur stdDeviation="8"/>
<feComposite in2="hardAlpha" operator="out"/>
<feColorMatrix type="matrix" values="0 0 0 0 0.367211 0 0 0 0 0.315061 0 0 0 0 0.471511 0 0 0 0.2 0"/>
<feBlend mode="normal" in2="BackgroundImageFix" result="effect1_dropShadow_1309_2002"/>
<feBlend mode="normal" in="SourceGraphic" in2="effect1_dropShadow_1309_2002" result="shape"/>
</filter>
<clipPath id="clip0_1309_2002">
<rect width="48" height="48" fill="white" transform="translate(82 67)"/>
</clipPath>
</defs>
</svg>
