<svg width="208" height="230" viewBox="0 0 208 230" fill="none" xmlns="http://www.w3.org/2000/svg">
<g filter="url(#filter0_d_1309_1990)">
<path d="M65.1504 28C65.052 28.4847 65 28.9863 65 29.5C65 33.6421 68.3579 37 72.5 37C76.6421 37 80 33.6421 80 29.5C80 28.9863 79.948 28.4847 79.8496 28H85.1504C85.052 28.4847 85 28.9863 85 29.5C85 33.6421 88.3579 37 92.5 37C96.6421 37 100 33.6421 100 29.5C100 28.9863 99.948 28.4847 99.8496 28H105.15C105.052 28.4847 105 28.9863 105 29.5C105 33.6421 108.358 37 112.5 37C116.642 37 120 33.6421 120 29.5C120 28.9863 119.948 28.4847 119.85 28H125.15C125.052 28.4847 125 28.9863 125 29.5C125 33.6421 128.358 37 132.5 37C136.642 37 140 33.6421 140 29.5C140 28.9863 139.948 28.4847 139.85 28H145.15C145.052 28.4847 145 28.9863 145 29.5C145 33.6421 148.358 37 152.5 37C156.642 37 160 33.6421 160 29.5C160 28.9863 159.948 28.4847 159.85 28H160C166.627 28 172 33.3726 172 40V45.0186C168.091 45.2759 165 48.5259 165 52.5C165 56.4741 168.091 59.7241 172 59.9814V65.0186C168.091 65.2759 165 68.5259 165 72.5C165 76.4741 168.091 79.7241 172 79.9814V85.0186C168.091 85.2759 165 88.5259 165 92.5C165 96.4741 168.091 99.7241 172 99.9814V105.019C168.091 105.276 165 108.526 165 112.5C165 116.474 168.091 119.724 172 119.981V125.019C168.091 125.276 165 128.526 165 132.5C165 136.474 168.091 139.724 172 139.981V145.019C168.091 145.276 165 148.526 165 152.5C165 156.474 168.091 159.724 172 159.981V174C172 179.622 168.133 184.339 162.914 185.642C162.971 185.269 163 184.888 163 184.5C163 180.358 159.642 177 155.5 177C151.358 177 148 180.358 148 184.5C148 185.014 148.052 185.515 148.15 186H142.85C142.948 185.515 143 185.014 143 184.5C143 180.358 139.642 177 135.5 177C131.358 177 128 180.358 128 184.5C128 185.014 128.052 185.515 128.15 186H122.85C122.948 185.515 123 185.014 123 184.5C123 180.358 119.642 177 115.5 177C111.358 177 108 180.358 108 184.5C108 185.014 108.052 185.515 108.15 186H102.85C102.948 185.515 103 185.014 103 184.5C103 180.358 99.6421 177 95.5 177C91.3579 177 88 180.358 88 184.5C88 185.014 88.052 185.515 88.1504 186H82.8496C82.948 185.515 83 185.014 83 184.5C83 180.358 79.6421 177 75.5 177C71.3579 177 68 180.358 68 184.5C68 185.014 68.052 185.515 68.1504 186H62.8496C62.948 185.515 63 185.014 63 184.5C63 180.358 59.6421 177 55.5 177C51.3579 177 48 180.358 48 184.5C48 185.014 48.052 185.515 48.1504 186H48C41.3726 186 36 180.627 36 174V158.85C36.4847 158.948 36.9863 159 37.5 159C41.6421 159 45 155.642 45 151.5C45 147.358 41.6421 144 37.5 144C36.9863 144 36.4846 144.051 36 144.149V138.85C36.4847 138.948 36.9863 139 37.5 139C41.6421 139 45 135.642 45 131.5C45 127.358 41.6421 124 37.5 124C36.9863 124 36.4846 124.051 36 124.149V118.85C36.4847 118.948 36.9863 119 37.5 119C41.6421 119 45 115.642 45 111.5C45 107.358 41.6421 104 37.5 104C36.9863 104 36.4846 104.051 36 104.149V98.8496C36.4847 98.948 36.9863 99 37.5 99C41.6421 99 45 95.6421 45 91.5C45 87.3579 41.6421 84 37.5 84C36.9863 84 36.4846 84.051 36 84.1494V78.8496C36.4847 78.948 36.9863 79 37.5 79C41.6421 79 45 75.6421 45 71.5C45 67.3579 41.6421 64 37.5 64C36.9863 64 36.4846 64.051 36 64.1494V58.8496C36.4847 58.948 36.9863 59 37.5 59C41.6421 59 45 55.6421 45 51.5C45 47.3579 41.6421 44 37.5 44C36.9863 44 36.4846 44.051 36 44.1494V40C36 34.378 39.8663 29.6598 45.085 28.3574C45.028 28.7299 45 29.1116 45 29.5C45 33.6421 48.3579 37 52.5 37C56.6421 37 60 33.6421 60 29.5C60 28.9863 59.948 28.4847 59.8496 28H65.1504Z" fill="#EBE7FF"/>
</g>
<defs>
<filter id="filter0_d_1309_1990" x="0" y="0" width="208" height="230" filterUnits="userSpaceOnUse" color-interpolation-filters="sRGB">
<feFlood flood-opacity="0" result="BackgroundImageFix"/>
<feColorMatrix in="SourceAlpha" type="matrix" values="0 0 0 0 0 0 0 0 0 0 0 0 0 0 0 0 0 0 127 0" result="hardAlpha"/>
<feMorphology radius="20" operator="dilate" in="SourceAlpha" result="effect1_dropShadow_1309_1990"/>
<feOffset dy="8"/>
<feGaussianBlur stdDeviation="8"/>
<feComposite in2="hardAlpha" operator="out"/>
<feColorMatrix type="matrix" values="0 0 0 0 0.367211 0 0 0 0 0.315061 0 0 0 0 0.471511 0 0 0 0.2 0"/>
<feBlend mode="normal" in2="BackgroundImageFix" result="effect1_dropShadow_1309_1990"/>
<feBlend mode="normal" in="SourceGraphic" in2="effect1_dropShadow_1309_1990" result="shape"/>
</filter>
</defs>
</svg>
