<svg width="19" height="18" viewBox="0 0 19 18" fill="none" xmlns="http://www.w3.org/2000/svg">
<path fill-rule="evenodd" clip-rule="evenodd" d="M7.5 0C8.03043 0 8.53914 0.210714 8.91421 0.585786C9.28929 0.960859 9.5 1.46957 9.5 2V16C9.5 16.5304 9.28929 17.0391 8.91421 17.4142C8.53914 17.7893 8.03043 18 7.5 18H2.5C1.96957 18 1.46086 17.7893 1.08579 17.4142C0.710714 17.0391 0.5 16.5304 0.5 16V2C0.5 1.46957 0.710714 0.960859 1.08579 0.585786C1.46086 0.210714 1.96957 0 2.5 0H7.5ZM17.16 9.111C17.891 9.367 18.43 10.035 18.494 10.838L18.5 16C18.5002 16.5046 18.3096 16.9906 17.9665 17.3605C17.6234 17.7305 17.1532 17.9572 16.65 17.995L16.5 18H10.5V15.77L17.16 9.111ZM5 12C4.60218 12 4.22064 12.158 3.93934 12.4393C3.65804 12.7206 3.5 13.1022 3.5 13.5C3.5 13.8978 3.65804 14.2794 3.93934 14.5607C4.22064 14.842 4.60218 15 5 15C5.39782 15 5.77936 14.842 6.06066 14.5607C6.34196 14.2794 6.5 13.8978 6.5 13.5C6.5 13.1022 6.34196 12.7206 6.06066 12.4393C5.77936 12.158 5.39782 12 5 12ZM11.136 1C11.4899 0.646051 11.9637 0.437672 12.4637 0.41601C12.9638 0.394349 13.4538 0.56098 13.837 0.883L13.964 1L17.5 4.536C17.8366 4.87266 18.042 5.31832 18.0794 5.79288C18.1168 6.26745 17.9837 6.73979 17.704 7.125L10.5 14.357V1.636L11.136 1Z" fill="#FEF2F2"/>
</svg>
