<svg width="20" height="20" viewBox="0 0 20 20" fill="none" xmlns="http://www.w3.org/2000/svg">
<path d="M10 17.5C10.2652 17.5 10.5196 17.6054 10.7071 17.7929C10.8946 17.9804 11 18.2348 11 18.5V19C11 19.2652 10.8946 19.5196 10.7071 19.7071C10.5196 19.8946 10.2652 20 10 20C9.73478 20 9.48043 19.8946 9.29289 19.7071C9.10536 19.5196 9 19.2652 9 19V18.5C9 18.2348 9.10536 17.9804 9.29289 17.7929C9.48043 17.6054 9.73478 17.5 10 17.5ZM15.657 14.243L17.778 16.364C17.8709 16.4568 17.9446 16.5671 17.9949 16.6884C18.0452 16.8097 18.0712 16.9398 18.0712 17.0711C18.0712 17.2025 18.0454 17.3326 17.9952 17.4539C17.945 17.5753 17.8713 17.6856 17.7785 17.7785C17.6857 17.8714 17.5754 17.9451 17.4541 17.9954C17.3328 18.0457 17.2027 18.0717 17.0714 18.0717C16.94 18.0717 16.8099 18.0459 16.6886 17.9957C16.5672 17.9455 16.4569 17.8718 16.364 17.779L14.243 15.657C14.1475 15.5648 14.0713 15.4544 14.0189 15.3324C13.9665 15.2104 13.9389 15.0792 13.9377 14.9464C13.9366 14.8136 13.9619 14.6819 14.0122 14.559C14.0625 14.4361 14.1367 14.3245 14.2306 14.2306C14.3245 14.1367 14.4361 14.0625 14.559 14.0122C14.6819 13.9619 14.8136 13.9366 14.9464 13.9377C15.0792 13.9389 15.2104 13.9665 15.3324 14.0189C15.4544 14.0713 15.5648 14.1475 15.657 14.243ZM5.757 14.243C5.94447 14.4305 6.04979 14.6848 6.04979 14.95C6.04979 15.2152 5.94447 15.4695 5.757 15.657L3.637 17.777C3.44853 17.9593 3.196 18.0603 2.93379 18.0582C2.67159 18.0561 2.4207 17.9511 2.23516 17.7658C2.04962 17.5805 1.94428 17.3298 1.94181 17.0676C1.93935 16.8054 2.03997 16.5527 2.222 16.364L4.343 14.242C4.53053 14.0545 4.78484 13.9492 5.05 13.9492C5.31516 13.9492 5.56947 14.0555 5.757 14.243ZM10.004 3.47C10.2114 3.47 10.4137 3.53448 10.5828 3.65452C10.7519 3.77456 10.8796 3.94422 10.948 4.14C11.3463 5.27674 11.9953 6.30924 12.847 7.16095C13.6988 8.01266 14.7313 8.66172 15.868 9.06C16.0638 9.12843 16.2335 9.25605 16.3535 9.42518C16.4736 9.59432 16.5381 9.79659 16.5381 10.004C16.5381 10.2114 16.4736 10.4137 16.3535 10.5828C16.2335 10.7519 16.0638 10.8796 15.868 10.948C14.7313 11.3463 13.6988 11.9953 12.847 12.847C11.9953 13.6988 11.3463 14.7313 10.948 15.868C10.8796 16.0638 10.7519 16.2335 10.5828 16.3535C10.4137 16.4736 10.2114 16.5381 10.004 16.5381C9.79659 16.5381 9.59432 16.4736 9.42518 16.3535C9.25605 16.2335 9.12843 16.0638 9.06 15.868C8.66172 14.7313 8.01266 13.6988 7.16095 12.847C6.30924 11.9953 5.27674 11.3463 4.14 10.948C3.94421 10.8796 3.77454 10.7519 3.65449 10.5828C3.53444 10.4137 3.46995 10.2114 3.46995 10.004C3.46995 9.79659 3.53444 9.59432 3.65449 9.42518C3.77454 9.25605 3.94421 9.12843 4.14 9.06C5.27678 8.66178 6.30931 8.01274 7.16103 7.16103C8.01274 6.30931 8.66178 5.27678 9.06 4.14C9.12844 3.94422 9.25607 3.77456 9.4252 3.65452C9.59433 3.53448 9.7966 3.47 10.004 3.47ZM19 9C19.2652 9 19.5196 9.10536 19.7071 9.29289C19.8946 9.48043 20 9.73478 20 10C20 10.2652 19.8946 10.5196 19.7071 10.7071C19.5196 10.8946 19.2652 11 19 11H18.5C18.2348 11 17.9804 10.8946 17.7929 10.7071C17.6054 10.5196 17.5 10.2652 17.5 10C17.5 9.73478 17.6054 9.48043 17.7929 9.29289C17.9804 9.10536 18.2348 9 18.5 9H19ZM1.5 9C1.76522 9 2.01957 9.10536 2.20711 9.29289C2.39464 9.48043 2.5 9.73478 2.5 10C2.5 10.2652 2.39464 10.5196 2.20711 10.7071C2.01957 10.8946 1.76522 11 1.5 11H1C0.734784 11 0.48043 10.8946 0.292893 10.7071C0.105357 10.5196 0 10.2652 0 10C0 9.73478 0.105357 9.48043 0.292893 9.29289C0.48043 9.10536 0.734784 9 1 9H1.5ZM17.778 2.222C17.9503 2.39407 18.0539 2.6231 18.0694 2.86613C18.0849 3.10916 18.0111 3.34948 17.862 3.542L17.778 3.636L15.658 5.757C15.4785 5.93825 15.2364 6.04403 14.9815 6.05268C14.7265 6.06133 14.4778 5.9722 14.2864 5.80353C14.095 5.63487 13.9753 5.39942 13.9518 5.14538C13.9283 4.89134 14.0028 4.63792 14.16 4.437L14.243 4.343L16.364 2.222C16.5515 2.03453 16.8058 1.92921 17.071 1.92921C17.3362 1.92921 17.5905 2.03453 17.778 2.222ZM3.542 2.138L3.636 2.222L5.757 4.342C5.93825 4.52154 6.04403 4.76357 6.05268 5.01855C6.06133 5.27352 5.9722 5.52217 5.80353 5.71358C5.63487 5.90499 5.39942 6.0247 5.14538 6.0482C4.89134 6.0717 4.63792 5.99722 4.437 5.84L4.343 5.757L2.222 3.636C2.04943 3.46374 1.94575 3.23436 1.93046 2.991C1.91517 2.74765 1.98931 2.5071 2.13895 2.31458C2.28859 2.12207 2.50341 1.99086 2.74301 1.94563C2.98261 1.9004 3.23048 1.94428 3.44 2.069L3.542 2.138ZM10 0C10.2449 3.23106e-05 10.4813 0.0899562 10.6644 0.252715C10.8474 0.415475 10.9643 0.639749 10.993 0.883L11 1V1.5C10.9997 1.75488 10.9021 2.00003 10.7272 2.18537C10.5522 2.3707 10.313 2.48223 10.0586 2.49717C9.80416 2.51211 9.55362 2.42933 9.35817 2.26574C9.16271 2.10214 9.0371 1.8701 9.007 1.617L9 1.5V1C9 0.734784 9.10536 0.48043 9.29289 0.292893C9.48043 0.105357 9.73478 0 10 0Z" fill="#B9B6C3"/>
</svg>
