<svg width="19" height="20" viewBox="0 0 19 20" fill="none" xmlns="http://www.w3.org/2000/svg">
<path d="M9.69971 11C12.0957 11 14.2747 11.694 15.8777 12.672C16.6777 13.16 17.3617 13.736 17.8557 14.362C18.3417 14.977 18.6997 15.713 18.6997 16.5C18.6997 17.345 18.2887 18.011 17.6967 18.486C17.1367 18.936 16.3977 19.234 15.6127 19.442C14.0347 19.859 11.9287 20 9.69971 20C7.47071 20 5.36471 19.86 3.78671 19.442C3.00171 19.234 2.26271 18.936 1.70271 18.486C1.10971 18.01 0.699707 17.345 0.699707 16.5C0.699707 15.713 1.05771 14.977 1.54371 14.361C2.03771 13.736 2.72071 13.161 3.52171 12.671C5.12471 11.695 7.30471 11 9.69971 11ZM9.69971 0C11.0258 0 12.2976 0.526784 13.2352 1.46447C14.1729 2.40215 14.6997 3.67392 14.6997 5C14.6997 6.32608 14.1729 7.59785 13.2352 8.53553C12.2976 9.47322 11.0258 10 9.69971 10C8.37362 10 7.10186 9.47322 6.16417 8.53553C5.22649 7.59785 4.69971 6.32608 4.69971 5C4.69971 3.67392 5.22649 2.40215 6.16417 1.46447C7.10186 0.526784 8.37362 0 9.69971 0Z" fill="#6F27FF"/>
</svg>
