<svg width="19" height="20" viewBox="0 0 19 20" fill="none" xmlns="http://www.w3.org/2000/svg">
<path fill-rule="evenodd" clip-rule="evenodd" d="M9.69995 11C12.096 11 14.275 11.694 15.878 12.672C16.678 13.16 17.362 13.736 17.856 14.362C18.342 14.977 18.7 15.713 18.7 16.5C18.7 17.345 18.289 18.011 17.697 18.486C17.137 18.936 16.398 19.234 15.613 19.442C14.035 19.859 11.929 20 9.69995 20C7.47095 20 5.36495 19.86 3.78695 19.442C3.00195 19.234 2.26295 18.936 1.70295 18.486C1.10995 18.01 0.699951 17.345 0.699951 16.5C0.699951 15.713 1.05795 14.977 1.54395 14.361C2.03795 13.736 2.72095 13.161 3.52195 12.671C5.12495 11.695 7.30495 11 9.69995 11ZM9.69995 13C7.67695 13 5.85695 13.59 4.56395 14.379C3.91695 14.773 3.42895 15.201 3.11395 15.601C2.78995 16.011 2.69995 16.321 2.69995 16.5C2.69995 16.622 2.73695 16.751 2.95495 16.926C3.20395 17.126 3.63695 17.333 4.29895 17.508C5.61695 17.858 7.51095 18 9.69995 18C11.89 18 13.783 17.857 15.1 17.508C15.763 17.333 16.196 17.126 16.445 16.926C16.663 16.751 16.7 16.622 16.7 16.5C16.7 16.32 16.61 16.011 16.287 15.601C15.971 15.201 15.483 14.773 14.836 14.379C13.543 13.589 11.723 13 9.69995 13ZM9.69995 0C11.026 0 12.2978 0.526784 13.2355 1.46447C14.1732 2.40215 14.7 3.67392 14.7 5C14.7 6.32608 14.1732 7.59785 13.2355 8.53553C12.2978 9.47322 11.026 10 9.69995 10C8.37387 10 7.1021 9.47322 6.16442 8.53553C5.22674 7.59785 4.69995 6.32608 4.69995 5C4.69995 3.67392 5.22674 2.40215 6.16442 1.46447C7.1021 0.526784 8.37387 0 9.69995 0ZM9.69995 2C9.30599 2 8.91588 2.0776 8.5519 2.22836C8.18792 2.37913 7.85721 2.6001 7.57863 2.87868C7.30005 3.15726 7.07908 3.48797 6.92831 3.85195C6.77755 4.21593 6.69995 4.60603 6.69995 5C6.69995 5.39397 6.77755 5.78407 6.92831 6.14805C7.07908 6.51203 7.30005 6.84274 7.57863 7.12132C7.85721 7.3999 8.18792 7.62087 8.5519 7.77164C8.91588 7.9224 9.30599 8 9.69995 8C10.4956 8 11.2587 7.68393 11.8213 7.12132C12.3839 6.55871 12.7 5.79565 12.7 5C12.7 4.20435 12.3839 3.44129 11.8213 2.87868C11.2587 2.31607 10.4956 2 9.69995 2Z" fill="#938EA2"/>
</svg>
