<svg width="20" height="21" viewBox="0 0 20 21" fill="none" xmlns="http://www.w3.org/2000/svg">
<path d="M8.077 1.61415C8.415 0.854147 9.456 0.817147 9.864 1.50015L9.923 1.61415L10.965 3.95915C11.8749 6.00606 13.388 7.72641 15.302 8.89015L15.624 9.07915L17.474 10.1191C17.6211 10.2015 17.7452 10.3193 17.8351 10.4619C17.9249 10.6045 17.9777 10.7673 17.9885 10.9355C17.9994 11.1037 17.9679 11.2719 17.8971 11.4249C17.8263 11.5778 17.7183 11.7106 17.583 11.8111L17.475 11.8811L15.624 12.9211C13.6714 14.0195 12.1007 15.6879 11.122 17.7031L10.965 18.0411L9.923 20.3861C9.585 21.1461 8.544 21.1831 8.136 20.5001L8.077 20.3861L7.035 18.0411C6.12513 15.9942 4.61202 14.2739 2.698 13.1101L2.376 12.9211L0.526001 11.8811C0.37893 11.7988 0.254802 11.681 0.164931 11.5384C0.0750591 11.3958 0.0223016 11.233 0.011466 11.0648C0.00063037 10.8966 0.0320611 10.7283 0.102894 10.5754C0.173727 10.4225 0.28171 10.2897 0.417001 10.1891L0.525001 10.1191L2.376 9.07915C4.32862 7.98079 5.89932 6.31241 6.878 4.29715L7.035 3.95915L8.077 1.61415ZM17.221 1.12115C17.7174 2.24875 18.5639 3.18641 19.635 3.79515C19.795 3.88515 19.795 4.11515 19.635 4.20515C18.5633 4.81398 17.7165 5.75203 17.22 6.88015C17.201 6.92262 17.1701 6.95868 17.1311 6.98398C17.0921 7.00929 17.0465 7.02275 17 7.02275C16.9535 7.02275 16.9079 7.00929 16.8689 6.98398C16.8299 6.95868 16.799 6.92262 16.78 6.88015C16.2834 5.7524 15.4365 4.81472 14.365 4.20615C14.3288 4.18552 14.2988 4.15569 14.2779 4.11968C14.2569 4.08368 14.2459 4.04278 14.2459 4.00115C14.2459 3.95951 14.2569 3.91861 14.2779 3.88261C14.2988 3.84661 14.3288 3.81678 14.365 3.79615C15.4368 3.18706 16.2837 2.24864 16.78 1.12015C16.799 1.07768 16.8299 1.04161 16.8689 1.01631C16.9079 0.991004 16.9535 0.977539 17 0.977539C17.0465 0.977539 17.0921 0.991004 17.1311 1.01631C17.1701 1.04161 17.201 1.07768 17.22 1.12015L17.221 1.12115Z" fill="#F57474"/>
</svg>
