<svg width="48" height="48" viewBox="0 0 48 48" fill="none" xmlns="http://www.w3.org/2000/svg">
<g clip-path="url(#clip0_1084_6067)">
<path fill-rule="evenodd" clip-rule="evenodd" d="M42.3839 10.9301C42.7588 11.3051 42.9695 11.8137 42.9695 12.3441C42.9695 12.8744 42.7588 13.383 42.3839 13.7581L19.8999 36.2441C19.6956 36.4485 19.453 36.6106 19.186 36.7212C18.9191 36.8318 18.6329 36.8888 18.3439 36.8888C18.0549 36.8888 17.7687 36.8318 17.5018 36.7212C17.2348 36.6106 16.9922 36.4485 16.7879 36.2441L5.6159 25.0721C5.43008 24.8862 5.28268 24.6656 5.18211 24.4228C5.08155 24.1801 5.02979 23.9198 5.02979 23.6571C5.02979 23.3943 5.08155 23.134 5.18211 22.8913C5.28268 22.6485 5.43008 22.4279 5.6159 22.2421C5.80172 22.0562 6.02232 21.9088 6.2651 21.8083C6.50789 21.7077 6.76811 21.6559 7.0309 21.6559C7.29369 21.6559 7.5539 21.7077 7.79669 21.8083C8.03948 21.9088 8.26008 22.0562 8.4459 22.2421L18.3459 32.1421L39.5539 10.9301C39.929 10.5551 40.4376 10.3445 40.9679 10.3445C41.4982 10.3445 42.0088 10.5551 42.3839 10.9301Z" fill="white"/>
</g>
<defs>
<clipPath id="clip0_1084_6067">
<rect width="48" height="48" fill="white"/>
</clipPath>
</defs>
</svg>
