<svg width="113" height="31" viewBox="0 0 113 31" fill="none" xmlns="http://www.w3.org/2000/svg">
<g clip-path="url(#clip0_852_6096)">
<path d="M22.4399 17.6627C19.8382 23.2213 12.0453 28.1345 6.48668 25.5328C0.92809 22.9311 -1.56939 12.7469 1.0323 7.18835C3.63398 1.62978 10.3496 2.80175 15.9082 5.40344C22.8166 8.63687 25.0416 12.1041 22.4399 17.6627Z" fill="#6F27FF"/>
<path d="M7.09475 11.6055C5.93695 10.5788 5.16163 9.33687 4.64638 8.81592L4.64335 10.7615C4.64092 12.3238 5.93118 13.5787 7.49289 13.5327L10.0012 13.4589C9.18857 13.0956 8.49912 12.8508 7.09475 11.6055Z" fill="url(#paint0_linear_852_6096)"/>
<path d="M15.429 10.942L7.2884 10.9111L9.02274 12.2809C9.71339 12.8265 10.5717 13.1158 11.4517 13.0996L18.6253 12.9682L18.2766 12.4557C17.6349 11.5126 16.5697 10.9464 15.429 10.942Z" fill="white"/>
<path d="M14.2507 13.6132L12.6293 13.6535C12.0324 13.6683 11.4853 13.9899 11.182 14.5042L8.31015 19.3742L8.76693 19.3761C9.97574 19.381 11.0995 18.7547 11.7312 17.724L14.2507 13.6132Z" fill="white"/>
<path d="M13.4437 10.3058L11.8209 10.2976C11.2026 10.2945 10.6065 10.0673 10.143 9.65805L11.4938 9.64466C12.188 9.63778 12.8646 9.86304 13.4161 10.2847L13.4437 10.3058Z" fill="#6F27FF"/>
<path d="M35.9501 23.7394C35.1681 23.7394 34.4978 23.6596 33.9392 23.5C33.3806 23.3404 32.9257 23.093 32.5746 22.7579C32.2235 22.4227 31.9601 21.9918 31.7846 21.4651C31.625 20.9225 31.5452 20.2841 31.5452 19.5499V9.39934C31.5452 9.11206 31.5691 8.86468 31.617 8.6572C31.6808 8.44972 31.8085 8.29012 32 8.1784C32.2075 8.05072 32.5267 7.98688 32.9576 7.98688C33.4045 7.98688 33.7237 8.05072 33.9152 8.1784C34.1227 8.30608 34.2504 8.48164 34.2983 8.70508C34.3621 8.91256 34.394 9.14398 34.394 9.39934V19.4541C34.394 19.7893 34.418 20.0606 34.4658 20.2681C34.5297 20.4756 34.6175 20.6352 34.7292 20.7469C34.8569 20.8427 35.0165 20.9145 35.208 20.9624C35.4155 20.9943 35.6628 21.0102 35.9501 21.0102C36.2534 21.0102 36.5087 21.0342 36.7162 21.0821C36.9396 21.1299 37.1072 21.2496 37.2189 21.4412C37.3307 21.6167 37.3865 21.912 37.3865 22.3269C37.3865 22.7738 37.3147 23.101 37.1711 23.3085C37.0434 23.5 36.8678 23.6197 36.6444 23.6676C36.4369 23.7155 36.2055 23.7394 35.9501 23.7394ZM30.5636 12.1764L33.0294 12.2003L36.3332 12.1046C36.6045 12.1046 36.8439 12.1365 37.0514 12.2003C37.2748 12.2482 37.4504 12.3759 37.578 12.5834C37.7057 12.7749 37.7696 13.0941 37.7696 13.541C37.7696 13.9559 37.7057 14.2671 37.578 14.4746C37.4504 14.6821 37.2828 14.8178 37.0753 14.8816C36.8678 14.9295 36.6284 14.9534 36.3571 14.9534L33.1491 14.9055L30.4918 14.9295C30.0928 14.9135 29.8135 14.8018 29.6539 14.5943C29.5102 14.3709 29.4384 14.0118 29.4384 13.517C29.4384 13.0542 29.5262 12.719 29.7018 12.5115C29.8933 12.2881 30.1806 12.1764 30.5636 12.1764ZM40.9669 23.7394C40.5359 23.7394 40.2167 23.6676 40.0093 23.5239C39.8177 23.3963 39.698 23.2207 39.6502 22.9973C39.6023 22.7738 39.5783 22.5264 39.5783 22.2551V13.3734C39.5783 13.0861 39.6023 12.8387 39.6502 12.6312C39.698 12.4078 39.8177 12.2402 40.0093 12.1285C40.2167 12.0008 40.5439 11.937 40.9908 11.937C41.4217 11.937 41.7329 11.9928 41.9245 12.1046C42.1319 12.2163 42.2596 12.3599 42.3075 12.5355C42.3713 12.6951 42.4033 12.8547 42.4033 13.0143L42.2117 13.4452C42.2915 13.3175 42.4033 13.1659 42.5469 12.9903C42.6905 12.7988 42.8821 12.6153 43.1215 12.4397C43.3609 12.2482 43.6481 12.0966 43.9833 11.9849C44.3185 11.8572 44.7175 11.7933 45.1803 11.7933C45.3718 11.7933 45.5713 11.8173 45.7788 11.8652C46.0022 11.8971 46.2177 11.9529 46.4252 12.0327C46.6486 12.0966 46.8481 12.1844 47.0237 12.2961C47.1992 12.4078 47.3349 12.5435 47.4307 12.7031C47.5264 12.8467 47.5743 13.0143 47.5743 13.2058C47.5743 13.7165 47.4466 14.1474 47.1913 14.4986C46.9359 14.8497 46.6327 15.0252 46.2815 15.0252C46.0421 15.0252 45.8666 15.0013 45.7549 14.9534C45.6431 14.9055 45.5474 14.8497 45.4676 14.7858C45.4037 14.722 45.3 14.6661 45.1564 14.6183C45.0287 14.5704 44.8212 14.5464 44.5339 14.5464C44.2945 14.5464 44.0471 14.5863 43.7918 14.6661C43.5524 14.7459 43.3289 14.8656 43.1215 15.0252C42.914 15.1848 42.7464 15.3923 42.6187 15.6477C42.491 15.8871 42.4272 16.1664 42.4272 16.4856V22.303C42.4272 22.5743 42.4033 22.8217 42.3554 23.0451C42.3075 23.2526 42.1798 23.4202 41.9723 23.5479C41.7649 23.6756 41.4297 23.7394 40.9669 23.7394ZM54.3742 23.7155C53.64 23.7155 52.9617 23.5878 52.3393 23.3324C51.7328 23.0611 51.1981 22.6781 50.7353 22.1833C50.2725 21.6885 49.9134 21.098 49.658 20.4117C49.4026 19.7255 49.275 18.9674 49.275 18.1374V13.3734C49.275 13.1021 49.2989 12.8627 49.3468 12.6552C49.3947 12.4317 49.5223 12.2562 49.7298 12.1285C49.9373 12.0008 50.2565 11.937 50.6874 11.937C51.1503 11.937 51.4774 12.0008 51.669 12.1285C51.8764 12.2562 52.0041 12.4317 52.052 12.6552C52.0999 12.8786 52.1238 13.126 52.1238 13.3973V18.1374C52.1238 18.712 52.2196 19.2068 52.4111 19.6217C52.6186 20.0367 52.9138 20.3639 53.2969 20.6033C53.6799 20.8267 54.1507 20.9384 54.7093 20.9384C55.2839 20.9384 55.7707 20.8267 56.1697 20.6033C56.5846 20.3639 56.9038 20.0367 57.1273 19.6217C57.3507 19.1908 57.4624 18.696 57.4624 18.1374V13.3494C57.4624 13.0781 57.4864 12.8387 57.5343 12.6312C57.5821 12.4078 57.7098 12.2402 57.9173 12.1285C58.1248 12.0008 58.452 11.937 58.8988 11.937C59.3457 11.937 59.6649 12.0008 59.8564 12.1285C60.048 12.2562 60.1677 12.4317 60.2155 12.6552C60.2794 12.8786 60.3113 13.118 60.3113 13.3734V22.3509C60.3113 22.5903 60.2794 22.8137 60.2155 23.0212C60.1677 23.2287 60.04 23.3963 59.8325 23.5239C59.641 23.6516 59.3218 23.7155 58.8749 23.7155C58.5557 23.7155 58.3003 23.6756 58.1088 23.5958C57.9333 23.5319 57.7976 23.4441 57.7018 23.3324C57.622 23.2047 57.5662 23.0771 57.5343 22.9494C57.5183 22.8217 57.5103 22.694 57.5103 22.5663L57.7018 21.92C57.6061 22.0636 57.4624 22.2392 57.2709 22.4466C57.0794 22.6382 56.84 22.8377 56.5527 23.0451C56.2814 23.2367 55.9622 23.3963 55.5951 23.5239C55.228 23.6516 54.8211 23.7155 54.3742 23.7155ZM64.0886 23.7155C63.6577 23.7155 63.3385 23.6436 63.131 23.5C62.9395 23.3723 62.8198 23.2047 62.7719 22.9973C62.724 22.7738 62.7001 22.5264 62.7001 22.2551V13.3016C62.7001 13.0462 62.724 12.8148 62.7719 12.6073C62.8198 12.3998 62.9475 12.2402 63.1549 12.1285C63.3624 12.0008 63.6816 11.937 64.1125 11.937C64.4956 11.937 64.7829 11.9849 64.9744 12.0806C65.1659 12.1764 65.2936 12.2961 65.3574 12.4397C65.4213 12.5834 65.4532 12.727 65.4532 12.8706C65.4691 13.0143 65.4851 13.126 65.5011 13.2058L65.4053 13.9719C65.5011 13.7165 65.6607 13.4691 65.8841 13.2297C66.1075 12.9903 66.3789 12.7749 66.6981 12.5834C67.0173 12.3759 67.3604 12.2163 67.7275 12.1046C68.1105 11.9769 68.5015 11.913 68.9005 11.913C69.6507 11.913 70.321 12.0487 70.9115 12.32C71.502 12.5913 72.0048 12.9744 72.4197 13.4691C72.8506 13.9639 73.1778 14.5544 73.4013 15.2407C73.6247 15.911 73.7364 16.6691 73.7364 17.515V22.2791C73.7364 22.5504 73.7045 22.7978 73.6407 23.0212C73.5928 23.2287 73.4731 23.3963 73.2816 23.5239C73.09 23.6516 72.7629 23.7155 72.3 23.7155C71.8531 23.7155 71.526 23.6436 71.3185 23.5C71.111 23.3723 70.9833 23.2047 70.9354 22.9973C70.8876 22.7738 70.8636 22.5264 70.8636 22.2551V17.4911C70.8636 16.9165 70.7599 16.4217 70.5524 16.0068C70.3609 15.5918 70.0736 15.2726 69.6906 15.0492C69.3235 14.8257 68.8527 14.714 68.2781 14.714C67.7195 14.714 67.2327 14.8337 66.8178 15.0731C66.4028 15.2966 66.0836 15.6158 65.8602 16.0307C65.6367 16.4457 65.525 16.9325 65.525 17.4911V22.2791C65.525 22.5504 65.5011 22.7978 65.4532 23.0212C65.4053 23.2287 65.2776 23.3963 65.0701 23.5239C64.8786 23.6516 64.5514 23.7155 64.0886 23.7155ZM81.1475 23.7155C80.4134 23.7155 79.7191 23.5638 79.0647 23.2606C78.4104 22.9574 77.8358 22.5424 77.3411 22.0157C76.8463 21.4731 76.4553 20.8427 76.168 20.1245C75.8807 19.3903 75.7371 18.6083 75.7371 17.7783C75.7371 16.9803 75.8807 16.2302 76.168 15.528C76.4553 14.8098 76.8463 14.1873 77.3411 13.6607C77.8518 13.118 78.4343 12.6951 79.0887 12.3918C79.743 12.0886 80.4293 11.937 81.1475 11.937C81.9136 11.937 82.5999 12.0886 83.2064 12.3918C83.8128 12.6951 84.3236 13.118 84.7385 13.6607C85.1694 14.1873 85.4966 14.8098 85.7201 15.528C85.9435 16.2302 86.0632 16.9883 86.0792 17.8023C86.0792 18.6162 85.9674 19.3823 85.744 20.1005C85.5365 20.8028 85.2173 21.4252 84.7864 21.9678C84.3714 22.5105 83.8527 22.9414 83.2303 23.2606C82.6238 23.5638 81.9296 23.7155 81.1475 23.7155ZM81.5306 20.9145C82.0892 20.9145 82.5839 20.7868 83.0148 20.5314C83.4617 20.2601 83.8128 19.893 84.0682 19.4302C84.3395 18.9674 84.4752 18.4407 84.4752 17.8502C84.4752 17.2437 84.3395 16.709 84.0682 16.2462C83.8128 15.7833 83.4617 15.4163 83.0148 15.1449C82.5839 14.8736 82.0892 14.738 81.5306 14.738C80.972 14.738 80.4692 14.8736 80.0223 15.1449C79.5755 15.4003 79.2164 15.7674 78.945 16.2462C78.6897 16.709 78.562 17.2437 78.562 17.8502C78.562 18.4407 78.6897 18.9674 78.945 19.4302C79.2164 19.893 79.5755 20.2601 80.0223 20.5314C80.4852 20.7868 80.9879 20.9145 81.5306 20.9145ZM85.9595 23.7155C85.5126 23.7155 85.1854 23.6436 84.9779 23.5C84.7704 23.3404 84.6348 23.093 84.5709 22.7579V8.01082C84.5709 7.7395 84.5869 7.5001 84.6188 7.29262C84.6667 7.06918 84.7864 6.89362 84.9779 6.76594C85.1854 6.6223 85.5046 6.55048 85.9355 6.55048C86.3984 6.55048 86.7255 6.61432 86.9171 6.742C87.1086 6.86968 87.2283 7.04524 87.2762 7.26868C87.34 7.47616 87.3719 7.71556 87.3719 7.98688V22.2551C87.3719 22.5264 87.348 22.7738 87.3001 22.9973C87.2522 23.2207 87.1245 23.3963 86.9171 23.5239C86.7255 23.6516 86.4063 23.7155 85.9595 23.7155ZM93.9601 23.7394C93.3696 23.7394 92.8429 23.6995 92.3801 23.6197C91.9332 23.5399 91.5422 23.4042 91.207 23.2127C90.8878 23.0212 90.6245 22.7658 90.417 22.4466C90.2095 22.1115 90.0499 21.7045 89.9382 21.2257C89.8424 20.7469 89.7945 20.1723 89.7945 19.502V7.96294C89.7945 7.69162 89.8185 7.45222 89.8664 7.24474C89.9302 7.0213 90.0579 6.84574 90.2494 6.71806C90.4569 6.57442 90.7841 6.5026 91.2309 6.5026C91.6778 6.5026 91.997 6.56644 92.1885 6.69412C92.396 6.8218 92.5237 6.99736 92.5716 7.2208C92.6354 7.42828 92.6673 7.66768 92.6673 7.939V19.3823C92.6673 19.6856 92.6833 19.9409 92.7152 20.1484C92.7631 20.3399 92.8349 20.4995 92.9307 20.6272C93.0424 20.7389 93.1781 20.8187 93.3377 20.8666C93.5132 20.9145 93.7207 20.9384 93.9601 20.9384C94.1676 20.9384 94.3511 20.9624 94.5107 21.0102C94.6863 21.0581 94.8219 21.1778 94.9177 21.3693C95.0294 21.5609 95.0853 21.8721 95.0853 22.303C95.0853 22.7499 95.0294 23.0771 94.9177 23.2845C94.8219 23.492 94.6863 23.6197 94.5107 23.6676C94.3352 23.7155 94.1516 23.7394 93.9601 23.7394ZM102.507 23.883C101.47 23.883 100.56 23.7155 99.7779 23.3803C99.0118 23.0451 98.3654 22.5903 97.8388 22.0157C97.328 21.4252 96.937 20.7708 96.6657 20.0526C96.4103 19.3185 96.2827 18.5604 96.2827 17.7783C96.2827 16.6292 96.546 15.6078 97.0727 14.714C97.5994 13.8203 98.3255 13.118 99.2512 12.6073C100.193 12.0966 101.27 11.8412 102.483 11.8412C103.345 11.8412 104.103 11.9769 104.757 12.2482C105.412 12.5195 105.954 12.8786 106.385 13.3255C106.832 13.7564 107.167 14.2352 107.391 14.7619C107.63 15.2886 107.75 15.7993 107.75 16.2941C107.75 17.1399 107.542 17.7544 107.127 18.1374C106.728 18.5205 106.226 18.712 105.619 18.712H99.2991C99.3151 19.2546 99.4826 19.7255 99.8018 20.1245C100.137 20.5235 100.552 20.8347 101.047 21.0581C101.557 21.2656 102.076 21.3693 102.603 21.3693C103.002 21.3693 103.353 21.3454 103.656 21.2975C103.975 21.2496 104.247 21.1938 104.47 21.1299C104.694 21.0501 104.885 20.9703 105.045 20.8905C105.22 20.8107 105.38 20.7389 105.523 20.6751C105.667 20.6112 105.803 20.5713 105.93 20.5554C106.106 20.5394 106.282 20.5793 106.457 20.6751C106.633 20.7708 106.776 20.9384 106.888 21.1778C106.984 21.3374 107.048 21.489 107.08 21.6327C107.127 21.7604 107.151 21.888 107.151 22.0157C107.151 22.3349 106.96 22.6382 106.577 22.9254C106.194 23.1968 105.651 23.4202 104.949 23.5958C104.263 23.7873 103.449 23.883 102.507 23.883ZM99.2991 17.0123H104.207C104.478 17.0123 104.686 16.9724 104.829 16.8926C104.973 16.7968 105.045 16.6053 105.045 16.318C105.045 15.9509 104.933 15.6237 104.71 15.3365C104.486 15.0332 104.183 14.8018 103.8 14.6422C103.417 14.4666 102.97 14.3789 102.459 14.3789C101.869 14.3789 101.334 14.4986 100.855 14.738C100.376 14.9614 99.9934 15.2726 99.7061 15.6716C99.4348 16.0706 99.2991 16.5175 99.2991 17.0123Z" fill="white"/>
</g>
<defs>
<linearGradient id="paint0_linear_852_6096" x1="5.29556" y1="9.35974" x2="10.7049" y2="13.9776" gradientUnits="userSpaceOnUse">
<stop stop-color="#C4A8FF"/>
<stop offset="1" stop-color="#7152B3"/>
</linearGradient>
<clipPath id="clip0_852_6096">
<rect width="112.286" height="30" fill="white" transform="translate(0 0.5)"/>
</clipPath>
</defs>
</svg>
