<svg width="16" height="16" viewBox="0 0 16 16" fill="none" xmlns="http://www.w3.org/2000/svg">
<path d="M6.74998 14.6668C6.74998 14.9984 6.88168 15.3163 7.1161 15.5507C7.35052 15.7851 7.66846 15.9168 7.99998 15.9168C8.3315 15.9168 8.64944 15.7851 8.88386 15.5507C9.11828 15.3163 9.24998 14.9984 9.24998 14.6668V9.25016H14.6666C14.9982 9.25016 15.3161 9.11847 15.5505 8.88405C15.7849 8.64963 15.9166 8.33168 15.9166 8.00016C15.9166 7.66864 15.7849 7.3507 15.5505 7.11628C15.3161 6.88186 14.9982 6.75016 14.6666 6.75016H9.24998V1.3335C9.24998 1.00198 9.11828 0.684033 8.88386 0.449613C8.64944 0.215192 8.3315 0.0834961 7.99998 0.0834961C7.66846 0.0834961 7.35052 0.215192 7.1161 0.449613C6.88168 0.684033 6.74998 1.00198 6.74998 1.3335V6.75016H1.33331C1.00179 6.75016 0.68385 6.88186 0.44943 7.11628C0.215009 7.3507 0.083313 7.66864 0.083313 8.00016C0.083313 8.33168 0.215009 8.64963 0.44943 8.88405C0.68385 9.11847 1.00179 9.25016 1.33331 9.25016H6.74998V14.6668Z" fill="white"/>
</svg>
