<svg width="16" height="16" viewBox="0 0 16 16" fill="none" xmlns="http://www.w3.org/2000/svg">
<path d="M6.75001 14.6668C6.75001 14.9984 6.88171 15.3163 7.11613 15.5507C7.35055 15.7851 7.66849 15.9168 8.00001 15.9168C8.33153 15.9168 8.64947 15.7851 8.88389 15.5507C9.11831 15.3163 9.25001 14.9984 9.25001 14.6668V9.25016H14.6667C14.9982 9.25016 15.3161 9.11847 15.5506 8.88405C15.785 8.64963 15.9167 8.33168 15.9167 8.00016C15.9167 7.66864 15.785 7.3507 15.5506 7.11628C15.3161 6.88186 14.9982 6.75016 14.6667 6.75016H9.25001V1.3335C9.25001 1.00198 9.11831 0.684033 8.88389 0.449613C8.64947 0.215192 8.33153 0.0834961 8.00001 0.0834961C7.66849 0.0834961 7.35055 0.215192 7.11613 0.449613C6.88171 0.684033 6.75001 1.00198 6.75001 1.3335V6.75016H1.33334C1.00182 6.75016 0.683881 6.88186 0.44946 7.11628C0.21504 7.3507 0.0833435 7.66864 0.0833435 8.00016C0.0833435 8.33168 0.21504 8.64963 0.44946 8.88405C0.683881 9.11847 1.00182 9.25016 1.33334 9.25016H6.75001V14.6668Z" fill="#B9B6C3"/>
</svg>
