<svg width="22" height="22" viewBox="0 0 22 22" fill="none" xmlns="http://www.w3.org/2000/svg">
<path d="M18.7134 7.12811L18.4668 7.69379C18.2864 8.10792 17.7136 8.10792 17.5331 7.69379L17.2866 7.12811C16.8471 6.11947 16.0555 5.31641 15.0677 4.87708L14.308 4.53922C13.8973 4.35653 13.8973 3.75881 14.308 3.57612L15.0252 3.25714C16.0384 2.80651 16.8442 1.97373 17.2761 0.930831L17.5293 0.319531C17.7058 -0.10651 18.2942 -0.10651 18.4706 0.319531L18.7238 0.930831C19.1558 1.97373 19.9616 2.80651 20.9748 3.25714L21.6919 3.57612C22.1027 3.75881 22.1027 4.35653 21.6919 4.53922L20.9323 4.87708C19.9445 5.31641 19.1529 6.11947 18.7134 7.12811ZM18 10C19.0101 10 20.0332 10.6929 19.8142 11.679C19.0232 15.2415 15.7989 18 12 18V20.023C12 20.7304 11.2856 21.2156 10.6323 20.944C5.8163 18.9418 0 15.925 0 10C0 5.58172 3.58172 2 8 2C8.76762 2 9.53799 1.98501 10.308 1.98001C11.3181 1.97344 12 2.98993 12 4C12 7.31371 14.6863 10 18 10Z" fill="#F4F2FF"/>
</svg>
