<svg width="21" height="20" viewBox="0 0 21 20" fill="none" xmlns="http://www.w3.org/2000/svg">
<path fill-rule="evenodd" clip-rule="evenodd" d="M9.09998 2C8.70601 2 8.3159 2.0776 7.95193 2.22836C7.58795 2.37913 7.25723 2.6001 6.97865 2.87868C6.70008 3.15726 6.4791 3.48797 6.32834 3.85195C6.17757 4.21593 6.09998 4.60603 6.09998 5C6.09998 5.39397 6.17757 5.78407 6.32834 6.14805C6.4791 6.51203 6.70008 6.84274 6.97865 7.12132C7.25723 7.3999 7.58795 7.62087 7.95193 7.77164C8.3159 7.9224 8.70601 8 9.09998 8C9.89563 8 10.6587 7.68393 11.2213 7.12132C11.7839 6.55871 12.1 5.79565 12.1 5C12.1 4.20435 11.7839 3.44129 11.2213 2.87868C10.6587 2.31607 9.89563 2 9.09998 2ZM4.09998 5C4.09998 3.67392 4.62676 2.40215 5.56444 1.46447C6.50212 0.526784 7.77389 0 9.09998 0C10.4261 0 11.6978 0.526784 12.6355 1.46447C13.5732 2.40215 14.1 3.67392 14.1 5C14.1 6.32608 13.5732 7.59785 12.6355 8.53553C11.6978 9.47322 10.4261 10 9.09998 10C7.77389 10 6.50212 9.47322 5.56444 8.53553C4.62676 7.59785 4.09998 6.32608 4.09998 5ZM2.51298 15.601C2.18998 16.011 2.09998 16.321 2.09998 16.5C2.09998 16.622 2.13698 16.751 2.35498 16.926C2.60398 17.126 3.03698 17.333 3.69898 17.508C5.01698 17.858 6.91098 18 9.09998 18C9.32198 18 9.54098 17.998 9.75798 17.995C10.0232 17.9914 10.279 18.0933 10.469 18.2783C10.6591 18.4634 10.7679 18.7163 10.7715 18.9815C10.7751 19.2467 10.6731 19.5025 10.4881 19.6926C10.3031 19.8826 10.0502 19.9914 9.78498 19.995C9.55898 19.998 9.32998 20 9.09998 20C6.87098 20 4.76498 19.86 3.18698 19.442C2.40198 19.234 1.66298 18.936 1.10298 18.486C0.509976 18.01 0.0999756 17.345 0.0999756 16.5C0.0999756 15.713 0.457976 14.977 0.943976 14.361C1.43798 13.736 2.12098 13.161 2.92198 12.671C4.52498 11.695 6.70498 11 9.09998 11C9.54698 11 9.98698 11.024 10.416 11.07C10.6797 11.098 10.9216 11.2296 11.0883 11.4359C11.255 11.6422 11.333 11.9062 11.305 12.17C11.277 12.4338 11.1454 12.6756 10.9391 12.8423C10.7328 13.009 10.4687 13.087 10.205 13.059C9.84498 13.02 9.47498 13 9.09998 13C7.07698 13 5.25698 13.59 3.96398 14.379C3.31698 14.773 2.82798 15.201 2.51298 15.601ZM16.964 11.997C16.8759 11.8459 16.7498 11.7206 16.5982 11.6335C16.4466 11.5463 16.2748 11.5005 16.1 11.5005C15.9251 11.5005 15.7533 11.5463 15.6017 11.6335C15.4501 11.7206 15.324 11.8459 15.236 11.997L14.326 13.559L12.56 13.941C12.389 13.978 12.2307 14.0592 12.1009 14.1765C11.9711 14.2938 11.8743 14.4431 11.8203 14.6095C11.7663 14.7759 11.7568 14.9535 11.7929 15.1247C11.829 15.2959 11.9094 15.4546 12.026 15.585L13.23 16.933L13.048 18.731C13.0303 18.905 13.0586 19.0806 13.1301 19.2402C13.2015 19.3998 13.3135 19.538 13.455 19.6408C13.5965 19.7436 13.7624 19.8075 13.9363 19.8261C14.1102 19.8448 14.2859 19.8175 14.446 19.747L16.1 19.017L17.754 19.747C17.914 19.8175 18.0898 19.8448 18.2636 19.8261C18.4375 19.8075 18.6035 19.7436 18.745 19.6408C18.8864 19.538 18.9985 19.3998 19.0699 19.2402C19.1413 19.0806 19.1696 18.905 19.152 18.731L18.97 16.932L20.174 15.585C20.2906 15.4546 20.371 15.2959 20.4071 15.1247C20.4431 14.9535 20.4337 14.7759 20.3796 14.6095C20.3256 14.4431 20.2289 14.2938 20.0991 14.1765C19.9693 14.0592 19.811 13.978 19.64 13.941L17.874 13.559L16.964 11.997ZM15.833 14.946L16.1 14.486L16.367 14.946C16.4369 15.066 16.5311 15.1702 16.6435 15.2518C16.756 15.3334 16.8842 15.3907 17.02 15.42L17.54 15.532L17.185 15.929C17.0923 16.0325 17.0222 16.1541 16.9792 16.2862C16.9362 16.4182 16.9211 16.5578 16.935 16.696L16.989 17.224L16.503 17.01C16.376 16.9541 16.2387 16.9252 16.1 16.9252C15.9612 16.9252 15.824 16.9541 15.697 17.01L15.211 17.224L15.264 16.696C15.2779 16.5578 15.2628 16.4182 15.2198 16.2862C15.1767 16.1541 15.1066 16.0325 15.014 15.929L14.661 15.532L15.181 15.42C15.3166 15.3906 15.4446 15.3332 15.5569 15.2516C15.6691 15.17 15.7631 15.0659 15.833 14.946Z" fill="#938EA2"/>
</svg>
