<svg width="15" height="18" viewBox="0 0 15 18" fill="none" xmlns="http://www.w3.org/2000/svg">
<path fill-rule="evenodd" clip-rule="evenodd" d="M9.4 0.666504C9.7498 0.666595 10.0907 0.776742 10.3744 0.981344C10.6581 1.18595 10.8703 1.47463 10.9808 1.8065L11.4333 3.1665H14.1667C14.3877 3.1665 14.5996 3.2543 14.7559 3.41058C14.9122 3.56686 15 3.77882 15 3.99984C15 4.22085 14.9122 4.43281 14.7559 4.58909C14.5996 4.74537 14.3877 4.83317 14.1667 4.83317L14.1642 4.89234L13.4417 15.0115C13.3966 15.642 13.1143 16.232 12.6517 16.6628C12.1891 17.0936 11.5805 17.3331 10.9483 17.3332H4.05167C3.41955 17.3331 2.81092 17.0936 2.34831 16.6628C1.88569 16.232 1.60342 15.642 1.55833 15.0115L0.835833 4.8915C0.834325 4.87209 0.833492 4.85264 0.833333 4.83317C0.61232 4.83317 0.400358 4.74537 0.244078 4.58909C0.0877973 4.43281 0 4.22085 0 3.99984C0 3.77882 0.0877973 3.56686 0.244078 3.41058C0.400358 3.2543 0.61232 3.1665 0.833333 3.1665H3.56667L4.01917 1.8065C4.12975 1.47449 4.34203 1.18571 4.62592 0.9811C4.9098 0.776486 5.25089 0.66642 5.60083 0.666504H9.4ZM5 7.33317C4.79589 7.3332 4.59889 7.40813 4.44636 7.54377C4.29383 7.6794 4.19638 7.8663 4.1725 8.069L4.16667 8.1665V13.1665C4.1669 13.3789 4.24823 13.5832 4.39404 13.7376C4.53985 13.8921 4.73913 13.985 4.95116 13.9975C5.1632 14.0099 5.37198 13.9409 5.53486 13.8046C5.69774 13.6683 5.80241 13.4749 5.8275 13.264L5.83333 13.1665V8.1665C5.83333 7.94549 5.74554 7.73353 5.58926 7.57725C5.43297 7.42097 5.22101 7.33317 5 7.33317ZM10 7.33317C9.77899 7.33317 9.56702 7.42097 9.41074 7.57725C9.25446 7.73353 9.16667 7.94549 9.16667 8.1665V13.1665C9.16667 13.3875 9.25446 13.5995 9.41074 13.7558C9.56702 13.912 9.77899 13.9998 10 13.9998C10.221 13.9998 10.433 13.912 10.5893 13.7558C10.7455 13.5995 10.8333 13.3875 10.8333 13.1665V8.1665C10.8333 7.94549 10.7455 7.73353 10.5893 7.57725C10.433 7.42097 10.221 7.33317 10 7.33317ZM9.4 2.33317H5.6L5.3225 3.1665H9.6775L9.4 2.33317Z" fill="white"/>
</svg>
