<svg width="21" height="20" viewBox="0 0 21 20" fill="none" xmlns="http://www.w3.org/2000/svg">
<path d="M10.5 0C16.023 0 20.5 4.477 20.5 10C20.5 15.523 16.023 20 10.5 20C4.977 20 0.5 15.523 0.5 10C0.5 4.477 4.977 0 10.5 0ZM10.5 2C8.37827 2 6.34344 2.84285 4.84315 4.34315C3.34285 5.84344 2.5 7.87827 2.5 10C2.5 12.1217 3.34285 14.1566 4.84315 15.6569C6.34344 17.1571 8.37827 18 10.5 18C12.6217 18 14.6566 17.1571 16.1569 15.6569C17.6571 14.1566 18.5 12.1217 18.5 10C18.5 7.87827 17.6571 5.84344 16.1569 4.34315C14.6566 2.84285 12.6217 2 10.5 2ZM15.45 5.05C15.845 5.446 15.847 6.03 15.786 6.56L15.749 6.843C15.589 7.963 15.144 9.618 14.507 10.999C14.197 11.671 13.807 12.35 13.328 12.829C12.85 13.306 12.172 13.697 11.498 14.007C10.118 14.644 8.463 15.089 7.343 15.249L7.061 15.286C6.531 15.346 5.943 15.342 5.551 14.95C5.194 14.593 5.158 14.075 5.2 13.585L5.232 13.295L5.251 13.157C5.411 12.037 5.856 10.382 6.493 9.001C6.803 8.329 7.193 7.65 7.672 7.171C8.15 6.693 8.829 6.303 9.502 5.993C10.882 5.356 12.537 4.911 13.657 4.751L13.939 4.714C14.469 4.654 15.054 4.654 15.449 5.05H15.45ZM13.738 6.762C12.83 6.917 11.415 7.312 10.338 7.809C9.741 8.085 9.315 8.357 9.086 8.586C8.856 8.815 8.585 9.241 8.309 9.838C7.813 10.915 7.417 12.33 7.262 13.238C8.17 13.083 9.585 12.688 10.662 12.191C11.259 11.915 11.685 11.643 11.914 11.414C12.144 11.185 12.416 10.759 12.691 10.162C13.187 9.085 13.584 7.67 13.738 6.762ZM10.5 9C10.7652 9 11.0196 9.10536 11.2071 9.29289C11.3946 9.48043 11.5 9.73478 11.5 10C11.5 10.2652 11.3946 10.5196 11.2071 10.7071C11.0196 10.8946 10.7652 11 10.5 11C10.2348 11 9.98043 10.8946 9.79289 10.7071C9.60536 10.5196 9.5 10.2652 9.5 10C9.5 9.73478 9.60536 9.48043 9.79289 9.29289C9.98043 9.10536 10.2348 9 10.5 9Z" fill="#938EA2"/>
</svg>
