<svg width="11" height="15" viewBox="0 0 11 15" fill="none" xmlns="http://www.w3.org/2000/svg">
<path d="M5.5 14.3333C8.2614 14.3333 10.5 12.0947 10.5 9.33333C10.5 8.75633 10.3465 8.20213 10.1667 7.6864C9.05553 8.78433 8.21113 9.33333 7.63333 9.33333C10.2969 4.66667 8.83333 2.66667 4.83333 0C5.16667 3.33301 2.96935 4.84917 2.07453 5.69107C1.10524 6.603 0.5 7.89747 0.5 9.33333C0.5 12.0947 2.73857 14.3333 5.5 14.3333ZM5.97293 2.48999C8.13407 4.32352 8.1444 5.7482 6.47533 8.6724C5.968 9.56127 6.60987 10.6667 7.63333 10.6667C8.09227 10.6667 8.55607 10.5328 9.04593 10.2701C8.63193 11.8413 7.20127 13 5.5 13C3.47495 13 1.83333 11.3584 1.83333 9.33333C1.83333 8.3072 2.25519 7.35173 2.98817 6.66213C3.07217 6.58313 3.49833 6.2054 3.51651 6.18907C3.79908 5.93473 4.03187 5.71087 4.26193 5.46451C5.0822 4.58621 5.6714 3.61087 5.97293 2.48999Z" fill="white"/>
</svg>
