<svg width="16" height="19" viewBox="0 0 16 19" fill="none" xmlns="http://www.w3.org/2000/svg">
<path d="M6.95003 8.8365L6.07703 7.9635C5.92819 7.81483 5.75411 7.73883 5.55478 7.7355C5.35544 7.73233 5.17819 7.80833 5.02303 7.9635C4.86803 8.11867 4.79053 8.29683 4.79053 8.498C4.79053 8.69933 4.86803 8.87758 5.02303 9.03275L6.31728 10.3422C6.49811 10.5231 6.70903 10.6135 6.95003 10.6135C7.19103 10.6135 7.40194 10.5231 7.58278 10.3422L11.027 6.898C11.1757 6.74933 11.2516 6.57275 11.2548 6.36825C11.2579 6.16375 11.182 5.98392 11.027 5.82875C10.8719 5.67375 10.6936 5.59625 10.4923 5.59625C10.2911 5.59625 10.1129 5.67375 9.95778 5.82875L6.95003 8.8365ZM15.548 8.248C15.548 9.04933 15.3798 9.8785 15.0433 10.7355C14.7068 11.5927 14.2514 12.4607 13.677 13.3395C13.1025 14.2183 12.4243 15.0942 11.6423 15.9672C10.8603 16.8404 10.0205 17.6904 9.12303 18.5173C8.96536 18.6583 8.78753 18.764 8.58953 18.8345C8.39136 18.905 8.19486 18.9403 8.00003 18.9403C7.80519 18.9403 7.61036 18.9067 7.41553 18.8395C7.22053 18.7722 7.04419 18.668 6.88653 18.527C5.98919 17.7 5.14944 16.8483 4.36728 15.972C3.58528 15.0958 2.90553 14.2199 2.32803 13.3443C1.75036 12.4686 1.29328 11.6007 0.956776 10.7405C0.620276 9.88017 0.452026 9.04933 0.452026 8.248C0.452026 5.94033 1.19844 4.07208 2.69128 2.64325C4.18428 1.21442 5.95386 0.5 8.00003 0.5C10.0462 0.5 11.8158 1.21442 13.3088 2.64325C14.8016 4.07208 15.548 5.94033 15.548 8.248Z" fill="#938EA2"/>
</svg>
