<svg width="15" height="13" viewBox="0 0 15 13" fill="none" xmlns="http://www.w3.org/2000/svg">
<path fill-rule="evenodd" clip-rule="evenodd" d="M11.1133 5.98717e-09C11.3298 -2.05039e-05 11.543 0.0526539 11.7345 0.153473C11.926 0.254293 12.0901 0.400226 12.2126 0.578667L12.2706 0.672L14.4933 4.56C14.629 4.79731 14.6885 5.0706 14.6637 5.34284C14.6389 5.61508 14.531 5.87312 14.3546 6.082L14.2786 6.164L8.08998 12.3527C7.94482 12.4978 7.7512 12.5842 7.54625 12.5954C7.34129 12.6066 7.13941 12.5418 6.97931 12.4133L6.91131 12.3533L0.722643 6.164C0.529327 5.97077 0.400067 5.72279 0.352369 5.45366C0.304671 5.18452 0.340839 4.90723 0.455976 4.65933L0.507976 4.55933L2.72998 0.671333C2.83737 0.483384 2.98891 0.324407 3.1715 0.208139C3.35409 0.0918704 3.56224 0.0218064 3.77798 0.00400003L3.88664 5.98717e-09H11.1133ZM4.36198 4.19533C4.237 4.32035 4.16679 4.48989 4.16679 4.66667C4.16679 4.84344 4.237 5.01298 4.36198 5.138L6.91064 7.68667C6.98803 7.76407 7.0799 7.82547 7.18102 7.86737C7.28214 7.90926 7.39052 7.93082 7.49998 7.93082C7.60943 7.93082 7.71781 7.90926 7.81893 7.86737C7.92005 7.82547 8.01192 7.76407 8.08931 7.68667L10.638 5.138C10.7016 5.0765 10.7524 5.00294 10.7874 4.9216C10.8223 4.84027 10.8407 4.75279 10.8415 4.66427C10.8422 4.57575 10.8254 4.48796 10.7919 4.40603C10.7583 4.3241 10.7088 4.24967 10.6462 4.18707C10.5836 4.12448 10.5092 4.07497 10.4273 4.04145C10.3453 4.00793 10.2576 3.99106 10.169 3.99183C10.0805 3.9926 9.99304 4.01099 9.91171 4.04593C9.83037 4.08087 9.75681 4.13166 9.69531 4.19533L7.49998 6.39067L5.30464 4.19533C5.17962 4.07035 5.01009 4.00014 4.83331 4.00014C4.65653 4.00014 4.48699 4.07035 4.36198 4.19533Z" fill="#111013"/>
</svg>
