<svg width="19" height="20" viewBox="0 0 19 20" fill="none" xmlns="http://www.w3.org/2000/svg">
<path d="M15.9 14C16.6956 14 17.4587 14.3161 18.0213 14.8787C18.5839 15.4413 18.9 16.2044 18.9 17C18.9 17.7956 18.5839 18.5587 18.0213 19.1213C17.4587 19.6839 16.6956 20 15.9 20C15.1043 20 14.3413 19.6839 13.7787 19.1213C13.2161 18.5587 12.9 17.7956 12.9 17C12.9 16.2044 13.2161 15.4413 13.7787 14.8787C14.3413 14.3161 15.1043 14 15.9 14ZM13.4 2C14.5935 2 15.7381 2.47411 16.582 3.31802C17.4259 4.16193 17.9 5.30653 17.9 6.5C17.9 7.69347 17.4259 8.83807 16.582 9.68198C15.7381 10.5259 14.5935 11 13.4 11H6.39999C5.73695 11 5.10107 11.2634 4.63223 11.7322C4.16339 12.2011 3.89999 12.837 3.89999 13.5C3.89999 14.163 4.16339 14.7989 4.63223 15.2678C5.10107 15.7366 5.73695 16 6.39999 16H10.9C11.1652 16 11.4196 16.1054 11.6071 16.2929C11.7946 16.4804 11.9 16.7348 11.9 17C11.9 17.2652 11.7946 17.5196 11.6071 17.7071C11.4196 17.8946 11.1652 18 10.9 18H6.39999C5.20652 18 4.06193 17.5259 3.21801 16.682C2.3741 15.8381 1.89999 14.6935 1.89999 13.5C1.89999 12.3065 2.3741 11.1619 3.21801 10.318C4.06193 9.47411 5.20652 9 6.39999 9H13.4C14.063 9 14.6989 8.73661 15.1678 8.26777C15.6366 7.79893 15.9 7.16304 15.9 6.5C15.9 5.83696 15.6366 5.20107 15.1678 4.73223C14.6989 4.26339 14.063 4 13.4 4H8.89999C8.63478 4 8.38042 3.89464 8.19289 3.70711C8.00535 3.51957 7.89999 3.26522 7.89999 3C7.89999 2.73478 8.00535 2.48043 8.19289 2.29289C8.38042 2.10536 8.63478 2 8.89999 2H13.4ZM3.89999 0C4.69564 0 5.45871 0.316071 6.02131 0.87868C6.58392 1.44129 6.89999 2.20435 6.89999 3C6.89999 3.79565 6.58392 4.55871 6.02131 5.12132C5.45871 5.68393 4.69564 6 3.89999 6C3.10434 6 2.34128 5.68393 1.77867 5.12132C1.21606 4.55871 0.899994 3.79565 0.899994 3C0.899994 2.20435 1.21606 1.44129 1.77867 0.87868C2.34128 0.316071 3.10434 0 3.89999 0Z" fill="#6F27FF"/>
</svg>
