<svg width="14" height="10" viewBox="0 0 14 10" fill="none" xmlns="http://www.w3.org/2000/svg">
<path fill-rule="evenodd" clip-rule="evenodd" d="M13.1281 0.643433C13.2531 0.768452 13.3233 0.93799 13.3233 1.11477C13.3233 1.29154 13.2531 1.46108 13.1281 1.5861L5.63346 9.08143C5.56536 9.14957 5.4845 9.20361 5.39551 9.24049C5.30651 9.27736 5.21113 9.29634 5.11479 9.29634C5.01846 9.29634 4.92308 9.27736 4.83408 9.24049C4.74509 9.20361 4.66423 9.14957 4.59613 9.08143L0.872129 5.35743C0.810188 5.29549 0.761055 5.22196 0.727533 5.14103C0.694011 5.0601 0.676758 4.97336 0.676758 4.88577C0.676758 4.79817 0.694011 4.71143 0.727533 4.6305C0.761055 4.54957 0.810188 4.47604 0.872129 4.4141C0.934069 4.35216 1.0076 4.30303 1.08853 4.2695C1.16946 4.23598 1.2562 4.21873 1.3438 4.21873C1.43139 4.21873 1.51813 4.23598 1.59906 4.2695C1.67999 4.30303 1.75352 4.35216 1.81546 4.4141L5.11546 7.7141L12.1848 0.643433C12.3098 0.518453 12.4794 0.448242 12.6561 0.448242C12.8329 0.448242 13.0031 0.518453 13.1281 0.643433Z" fill="#9D80FF"/>
</svg>
