<svg width="40" height="40" viewBox="0 0 40 40" fill="none" xmlns="http://www.w3.org/2000/svg">
<path d="M20 0.5C30.7696 0.5 39.5 9.23045 39.5 20C39.5 30.7696 30.7696 39.5 20 39.5C9.23045 39.5 0.5 30.7696 0.5 20C0.5 9.23045 9.23045 0.5 20 0.5Z" stroke="#DAD8DF" stroke-opacity="0.33"/>
<g clip-path="url(#clip0_2573_8422)">
<path d="M20 21C22.396 21 24.575 21.694 26.178 22.672C26.978 23.16 27.662 23.736 28.156 24.362C28.642 24.977 29 25.713 29 26.5C29 27.345 28.589 28.011 27.997 28.486C27.437 28.936 26.698 29.234 25.913 29.442C24.335 29.859 22.229 30 20 30C17.771 30 15.665 29.86 14.087 29.442C13.302 29.234 12.563 28.936 12.003 28.486C11.41 28.01 11 27.345 11 26.5C11 25.713 11.358 24.977 11.844 24.361C12.338 23.736 13.021 23.161 13.822 22.671C15.425 21.695 17.605 21 20 21ZM20 10C21.3261 10 22.5979 10.5268 23.5355 11.4645C24.4732 12.4021 25 13.6739 25 15C25 16.3261 24.4732 17.5979 23.5355 18.5355C22.5979 19.4732 21.3261 20 20 20C18.6739 20 17.4021 19.4732 16.4645 18.5355C15.5268 17.5979 15 16.3261 15 15C15 13.6739 15.5268 12.4021 16.4645 11.4645C17.4021 10.5268 18.6739 10 20 10Z" fill="white"/>
</g>
<defs>
<clipPath id="clip0_2573_8422">
<rect width="24" height="24" fill="white" transform="translate(8 8)"/>
</clipPath>
</defs>
</svg>
