<svg width="24" height="24" viewBox="0 0 24 24" fill="none" xmlns="http://www.w3.org/2000/svg">
<circle cx="12" cy="12" r="12" fill="#F5BA63"/>
<circle cx="8.20039" cy="9.4001" r="3.8" fill="#FDF5F7"/>
<circle cx="15.3996" cy="9.4001" r="3.8" fill="#FDF5F7"/>
<circle cx="8.20039" cy="9.4001" r="1.8" fill="#403D45"/>
<circle cx="15.3996" cy="9.4001" r="1.8" fill="#403D45"/>
<path d="M14.9395 15.2666C15.4167 15.2666 15.8371 15.5133 16.0469 15.8965C16.2397 16.249 16.232 16.6833 15.9814 17.043L15.8594 17.1924C14.9775 18.1132 13.5622 18.9336 11.7998 18.9336C10.1785 18.9335 8.74088 18.2393 7.74414 17.4229L7.55078 17.2578C7.14128 16.8948 7.0571 16.3713 7.2666 15.9414C7.46584 15.5329 7.89898 15.2667 8.39844 15.2666H14.9395Z" fill="#403E44" stroke="#FAE1AE" stroke-width="1.06667"/>
</svg>
