<svg width="16" height="12" viewBox="0 0 16 12" fill="none" xmlns="http://www.w3.org/2000/svg">
<path fill-rule="evenodd" clip-rule="evenodd" d="M15.66 0.554047C15.8162 0.710321 15.904 0.922244 15.904 1.14321C15.904 1.36418 15.8162 1.57611 15.66 1.73238L6.29164 11.1015C6.20652 11.1867 6.10545 11.2543 5.9942 11.3004C5.88296 11.3465 5.76373 11.3702 5.64331 11.3702C5.5229 11.3702 5.40366 11.3465 5.29242 11.3004C5.18118 11.2543 5.0801 11.1867 4.99498 11.1015L0.339978 6.44655C0.262553 6.36912 0.201135 6.27721 0.159233 6.17604C0.117331 6.07488 0.0957642 5.96646 0.0957642 5.85696C0.0957642 5.74747 0.117331 5.63904 0.159233 5.53788C0.201135 5.43672 0.262553 5.34481 0.339978 5.26738C0.417403 5.18996 0.50932 5.12854 0.610481 5.08664C0.711642 5.04473 0.820065 5.02317 0.929561 5.02317C1.03906 5.02317 1.14748 5.04473 1.24864 5.08664C1.3498 5.12854 1.44172 5.18996 1.51914 5.26738L5.64414 9.39238L14.4808 0.554047C14.6371 0.397822 14.849 0.310059 15.07 0.310059C15.2909 0.310059 15.5037 0.397822 15.66 0.554047Z" fill="#938EA2"/>
</svg>
